<?xml version="1.0" encoding="utf-8" standalone="no"?>
<!DOCTYPE svg PUBLIC "-//W3C//DTD SVG 1.1//EN"
  "http://www.w3.org/Graphics/SVG/1.1/DTD/svg11.dtd">
<svg xmlns:xlink="http://www.w3.org/1999/xlink" width="567.69857pt" height="311.659094pt" viewBox="0 0 567.69857 311.659094" xmlns="http://www.w3.org/2000/svg" version="1.1">
 <metadata>
  <rdf:RDF xmlns:dc="http://purl.org/dc/elements/1.1/" xmlns:cc="http://creativecommons.org/ns#" xmlns:rdf="http://www.w3.org/1999/02/22-rdf-syntax-ns#">
   <cc:Work>
    <dc:type rdf:resource="http://purl.org/dc/dcmitype/StillImage"/>
    <dc:date>2026-04-14T01:39:56.448194</dc:date>
    <dc:format>image/svg+xml</dc:format>
    <dc:creator>
     <cc:Agent>
      <dc:title>Matplotlib v3.10.8, https://matplotlib.org/</dc:title>
     </cc:Agent>
    </dc:creator>
   </cc:Work>
  </rdf:RDF>
 </metadata>
 <defs>
  <style type="text/css">*{stroke-linejoin: round; stroke-linecap: butt}</style>
 </defs>
 <g id="figure_1">
  <g id="patch_1">
   <path d="M 0 311.659094 
L 567.69857 311.659094 
L 567.69857 0 
L 0 0 
z
" style="fill: #ffffff"/>
  </g>
  <g id="axes_1">
   <g id="patch_2">
    <path d="M 61.510313 277.006281 
L 560.49857 277.006281 
L 560.49857 21.558281 
L 61.510313 21.558281 
z
" style="fill: #ffffff"/>
   </g>
   <g id="matplotlib.axis_1">
    <g id="xtick_1">
     <g id="line2d_1">
      <path d="M 84.191597 277.006281 
L 84.191597 21.558281 
" clip-path="url(#peb544bfe1c)" style="fill: none; stroke: #b0b0b0; stroke-opacity: 0.3; stroke-width: 0.8; stroke-linecap: square"/>
     </g>
     <g id="line2d_2">
      <defs>
       <path id="m9f3a7ce5c3" d="M 0 0 
L 0 3.5 
" style="stroke: #000000; stroke-width: 0.8"/>
      </defs>
      <g>
       <use xlink:href="#m9f3a7ce5c3" x="84.191597" y="277.006281" style="stroke: #000000; stroke-width: 0.8"/>
      </g>
     </g>
     <g id="text_1">
      <!-- $\mathdefault{10^{2}}$ -->
      <g transform="translate(77.151597 290.085031) scale(0.08 -0.08)">
       <defs>
        <path id="DejaVuSans-31" d="M 794 531 
L 1825 531 
L 1825 4091 
L 703 3866 
L 703 4441 
L 1819 4666 
L 2450 4666 
L 2450 531 
L 3481 531 
L 3481 0 
L 794 0 
L 794 531 
z
" transform="scale(0.015625)"/>
        <path id="DejaVuSans-30" d="M 2034 4250 
Q 1547 4250 1301 3770 
Q 1056 3291 1056 2328 
Q 1056 1369 1301 889 
Q 1547 409 2034 409 
Q 2525 409 2770 889 
Q 3016 1369 3016 2328 
Q 3016 3291 2770 3770 
Q 2525 4250 2034 4250 
z
M 2034 4750 
Q 2819 4750 3233 4129 
Q 3647 3509 3647 2328 
Q 3647 1150 3233 529 
Q 2819 -91 2034 -91 
Q 1250 -91 836 529 
Q 422 1150 422 2328 
Q 422 3509 836 4129 
Q 1250 4750 2034 4750 
z
" transform="scale(0.015625)"/>
        <path id="DejaVuSans-32" d="M 1228 531 
L 3431 531 
L 3431 0 
L 469 0 
L 469 531 
Q 828 903 1448 1529 
Q 2069 2156 2228 2338 
Q 2531 2678 2651 2914 
Q 2772 3150 2772 3378 
Q 2772 3750 2511 3984 
Q 2250 4219 1831 4219 
Q 1534 4219 1204 4116 
Q 875 4013 500 3803 
L 500 4441 
Q 881 4594 1212 4672 
Q 1544 4750 1819 4750 
Q 2544 4750 2975 4387 
Q 3406 4025 3406 3419 
Q 3406 3131 3298 2873 
Q 3191 2616 2906 2266 
Q 2828 2175 2409 1742 
Q 1991 1309 1228 531 
z
" transform="scale(0.015625)"/>
       </defs>
       <use xlink:href="#DejaVuSans-31" transform="translate(0 0.765625)"/>
       <use xlink:href="#DejaVuSans-30" transform="translate(63.623047 0.765625)"/>
       <use xlink:href="#DejaVuSans-32" transform="translate(128.203125 39.046875) scale(0.7)"/>
      </g>
     </g>
    </g>
    <g id="xtick_2">
     <g id="line2d_3">
      <path d="M 159.958742 277.006281 
L 159.958742 21.558281 
" clip-path="url(#peb544bfe1c)" style="fill: none; stroke: #b0b0b0; stroke-opacity: 0.3; stroke-width: 0.8; stroke-linecap: square"/>
     </g>
     <g id="line2d_4">
      <g>
       <use xlink:href="#m9f3a7ce5c3" x="159.958742" y="277.006281" style="stroke: #000000; stroke-width: 0.8"/>
      </g>
     </g>
     <g id="text_2">
      <!-- $\mathdefault{10^{3}}$ -->
      <g transform="translate(152.918742 290.085031) scale(0.08 -0.08)">
       <defs>
        <path id="DejaVuSans-33" d="M 2597 2516 
Q 3050 2419 3304 2112 
Q 3559 1806 3559 1356 
Q 3559 666 3084 287 
Q 2609 -91 1734 -91 
Q 1441 -91 1130 -33 
Q 819 25 488 141 
L 488 750 
Q 750 597 1062 519 
Q 1375 441 1716 441 
Q 2309 441 2620 675 
Q 2931 909 2931 1356 
Q 2931 1769 2642 2001 
Q 2353 2234 1838 2234 
L 1294 2234 
L 1294 2753 
L 1863 2753 
Q 2328 2753 2575 2939 
Q 2822 3125 2822 3475 
Q 2822 3834 2567 4026 
Q 2313 4219 1838 4219 
Q 1578 4219 1281 4162 
Q 984 4106 628 3988 
L 628 4550 
Q 988 4650 1302 4700 
Q 1616 4750 1894 4750 
Q 2613 4750 3031 4423 
Q 3450 4097 3450 3541 
Q 3450 3153 3228 2886 
Q 3006 2619 2597 2516 
z
" transform="scale(0.015625)"/>
       </defs>
       <use xlink:href="#DejaVuSans-31" transform="translate(0 0.765625)"/>
       <use xlink:href="#DejaVuSans-30" transform="translate(63.623047 0.765625)"/>
       <use xlink:href="#DejaVuSans-33" transform="translate(128.203125 39.046875) scale(0.7)"/>
      </g>
     </g>
    </g>
    <g id="xtick_3">
     <g id="line2d_5">
      <path d="M 235.725888 277.006281 
L 235.725888 21.558281 
" clip-path="url(#peb544bfe1c)" style="fill: none; stroke: #b0b0b0; stroke-opacity: 0.3; stroke-width: 0.8; stroke-linecap: square"/>
     </g>
     <g id="line2d_6">
      <g>
       <use xlink:href="#m9f3a7ce5c3" x="235.725888" y="277.006281" style="stroke: #000000; stroke-width: 0.8"/>
      </g>
     </g>
     <g id="text_3">
      <!-- $\mathdefault{10^{4}}$ -->
      <g transform="translate(228.685888 290.085031) scale(0.08 -0.08)">
       <defs>
        <path id="DejaVuSans-34" d="M 2419 4116 
L 825 1625 
L 2419 1625 
L 2419 4116 
z
M 2253 4666 
L 3047 4666 
L 3047 1625 
L 3713 1625 
L 3713 1100 
L 3047 1100 
L 3047 0 
L 2419 0 
L 2419 1100 
L 313 1100 
L 313 1709 
L 2253 4666 
z
" transform="scale(0.015625)"/>
       </defs>
       <use xlink:href="#DejaVuSans-31" transform="translate(0 0.684375)"/>
       <use xlink:href="#DejaVuSans-30" transform="translate(63.623047 0.684375)"/>
       <use xlink:href="#DejaVuSans-34" transform="translate(128.203125 38.965625) scale(0.7)"/>
      </g>
     </g>
    </g>
    <g id="xtick_4">
     <g id="line2d_7">
      <path d="M 311.493033 277.006281 
L 311.493033 21.558281 
" clip-path="url(#peb544bfe1c)" style="fill: none; stroke: #b0b0b0; stroke-opacity: 0.3; stroke-width: 0.8; stroke-linecap: square"/>
     </g>
     <g id="line2d_8">
      <g>
       <use xlink:href="#m9f3a7ce5c3" x="311.493033" y="277.006281" style="stroke: #000000; stroke-width: 0.8"/>
      </g>
     </g>
     <g id="text_4">
      <!-- $\mathdefault{10^{5}}$ -->
      <g transform="translate(304.453033 290.085031) scale(0.08 -0.08)">
       <defs>
        <path id="DejaVuSans-35" d="M 691 4666 
L 3169 4666 
L 3169 4134 
L 1269 4134 
L 1269 2991 
Q 1406 3038 1543 3061 
Q 1681 3084 1819 3084 
Q 2600 3084 3056 2656 
Q 3513 2228 3513 1497 
Q 3513 744 3044 326 
Q 2575 -91 1722 -91 
Q 1428 -91 1123 -41 
Q 819 9 494 109 
L 494 744 
Q 775 591 1075 516 
Q 1375 441 1709 441 
Q 2250 441 2565 725 
Q 2881 1009 2881 1497 
Q 2881 1984 2565 2268 
Q 2250 2553 1709 2553 
Q 1456 2553 1204 2497 
Q 953 2441 691 2322 
L 691 4666 
z
" transform="scale(0.015625)"/>
       </defs>
       <use xlink:href="#DejaVuSans-31" transform="translate(0 0.684375)"/>
       <use xlink:href="#DejaVuSans-30" transform="translate(63.623047 0.684375)"/>
       <use xlink:href="#DejaVuSans-35" transform="translate(128.203125 38.965625) scale(0.7)"/>
      </g>
     </g>
    </g>
    <g id="xtick_5">
     <g id="line2d_9">
      <path d="M 387.260179 277.006281 
L 387.260179 21.558281 
" clip-path="url(#peb544bfe1c)" style="fill: none; stroke: #b0b0b0; stroke-opacity: 0.3; stroke-width: 0.8; stroke-linecap: square"/>
     </g>
     <g id="line2d_10">
      <g>
       <use xlink:href="#m9f3a7ce5c3" x="387.260179" y="277.006281" style="stroke: #000000; stroke-width: 0.8"/>
      </g>
     </g>
     <g id="text_5">
      <!-- $\mathdefault{10^{6}}$ -->
      <g transform="translate(380.220179 290.085031) scale(0.08 -0.08)">
       <defs>
        <path id="DejaVuSans-36" d="M 2113 2584 
Q 1688 2584 1439 2293 
Q 1191 2003 1191 1497 
Q 1191 994 1439 701 
Q 1688 409 2113 409 
Q 2538 409 2786 701 
Q 3034 994 3034 1497 
Q 3034 2003 2786 2293 
Q 2538 2584 2113 2584 
z
M 3366 4563 
L 3366 3988 
Q 3128 4100 2886 4159 
Q 2644 4219 2406 4219 
Q 1781 4219 1451 3797 
Q 1122 3375 1075 2522 
Q 1259 2794 1537 2939 
Q 1816 3084 2150 3084 
Q 2853 3084 3261 2657 
Q 3669 2231 3669 1497 
Q 3669 778 3244 343 
Q 2819 -91 2113 -91 
Q 1303 -91 875 529 
Q 447 1150 447 2328 
Q 447 3434 972 4092 
Q 1497 4750 2381 4750 
Q 2619 4750 2861 4703 
Q 3103 4656 3366 4563 
z
" transform="scale(0.015625)"/>
       </defs>
       <use xlink:href="#DejaVuSans-31" transform="translate(0 0.765625)"/>
       <use xlink:href="#DejaVuSans-30" transform="translate(63.623047 0.765625)"/>
       <use xlink:href="#DejaVuSans-36" transform="translate(128.203125 39.046875) scale(0.7)"/>
      </g>
     </g>
    </g>
    <g id="xtick_6">
     <g id="line2d_11">
      <path d="M 463.027324 277.006281 
L 463.027324 21.558281 
" clip-path="url(#peb544bfe1c)" style="fill: none; stroke: #b0b0b0; stroke-opacity: 0.3; stroke-width: 0.8; stroke-linecap: square"/>
     </g>
     <g id="line2d_12">
      <g>
       <use xlink:href="#m9f3a7ce5c3" x="463.027324" y="277.006281" style="stroke: #000000; stroke-width: 0.8"/>
      </g>
     </g>
     <g id="text_6">
      <!-- $\mathdefault{10^{7}}$ -->
      <g transform="translate(455.987324 290.085031) scale(0.08 -0.08)">
       <defs>
        <path id="DejaVuSans-37" d="M 525 4666 
L 3525 4666 
L 3525 4397 
L 1831 0 
L 1172 0 
L 2766 4134 
L 525 4134 
L 525 4666 
z
" transform="scale(0.015625)"/>
       </defs>
       <use xlink:href="#DejaVuSans-31" transform="translate(0 0.684375)"/>
       <use xlink:href="#DejaVuSans-30" transform="translate(63.623047 0.684375)"/>
       <use xlink:href="#DejaVuSans-37" transform="translate(128.203125 38.965625) scale(0.7)"/>
      </g>
     </g>
    </g>
    <g id="xtick_7">
     <g id="line2d_13">
      <path d="M 538.794469 277.006281 
L 538.794469 21.558281 
" clip-path="url(#peb544bfe1c)" style="fill: none; stroke: #b0b0b0; stroke-opacity: 0.3; stroke-width: 0.8; stroke-linecap: square"/>
     </g>
     <g id="line2d_14">
      <g>
       <use xlink:href="#m9f3a7ce5c3" x="538.794469" y="277.006281" style="stroke: #000000; stroke-width: 0.8"/>
      </g>
     </g>
     <g id="text_7">
      <!-- $\mathdefault{10^{8}}$ -->
      <g transform="translate(531.754469 290.085031) scale(0.08 -0.08)">
       <defs>
        <path id="DejaVuSans-38" d="M 2034 2216 
Q 1584 2216 1326 1975 
Q 1069 1734 1069 1313 
Q 1069 891 1326 650 
Q 1584 409 2034 409 
Q 2484 409 2743 651 
Q 3003 894 3003 1313 
Q 3003 1734 2745 1975 
Q 2488 2216 2034 2216 
z
M 1403 2484 
Q 997 2584 770 2862 
Q 544 3141 544 3541 
Q 544 4100 942 4425 
Q 1341 4750 2034 4750 
Q 2731 4750 3128 4425 
Q 3525 4100 3525 3541 
Q 3525 3141 3298 2862 
Q 3072 2584 2669 2484 
Q 3125 2378 3379 2068 
Q 3634 1759 3634 1313 
Q 3634 634 3220 271 
Q 2806 -91 2034 -91 
Q 1263 -91 848 271 
Q 434 634 434 1313 
Q 434 1759 690 2068 
Q 947 2378 1403 2484 
z
M 1172 3481 
Q 1172 3119 1398 2916 
Q 1625 2713 2034 2713 
Q 2441 2713 2670 2916 
Q 2900 3119 2900 3481 
Q 2900 3844 2670 4047 
Q 2441 4250 2034 4250 
Q 1625 4250 1398 4047 
Q 1172 3844 1172 3481 
z
" transform="scale(0.015625)"/>
       </defs>
       <use xlink:href="#DejaVuSans-31" transform="translate(0 0.765625)"/>
       <use xlink:href="#DejaVuSans-30" transform="translate(63.623047 0.765625)"/>
       <use xlink:href="#DejaVuSans-38" transform="translate(128.203125 39.046875) scale(0.7)"/>
      </g>
     </g>
    </g>
    <g id="xtick_8">
     <g id="line2d_15">
      <path d="M 67.38275 277.006281 
L 67.38275 21.558281 
" clip-path="url(#peb544bfe1c)" style="fill: none; stroke: #b0b0b0; stroke-opacity: 0.3; stroke-width: 0.8; stroke-linecap: square"/>
     </g>
     <g id="line2d_16">
      <defs>
       <path id="m0f14386f46" d="M 0 0 
L 0 2 
" style="stroke: #000000; stroke-width: 0.6"/>
      </defs>
      <g>
       <use xlink:href="#m0f14386f46" x="67.38275" y="277.006281" style="stroke: #000000; stroke-width: 0.6"/>
      </g>
     </g>
    </g>
    <g id="xtick_9">
     <g id="line2d_17">
      <path d="M 72.455118 277.006281 
L 72.455118 21.558281 
" clip-path="url(#peb544bfe1c)" style="fill: none; stroke: #b0b0b0; stroke-opacity: 0.3; stroke-width: 0.8; stroke-linecap: square"/>
     </g>
     <g id="line2d_18">
      <g>
       <use xlink:href="#m0f14386f46" x="72.455118" y="277.006281" style="stroke: #000000; stroke-width: 0.6"/>
      </g>
     </g>
    </g>
    <g id="xtick_10">
     <g id="line2d_19">
      <path d="M 76.849002 277.006281 
L 76.849002 21.558281 
" clip-path="url(#peb544bfe1c)" style="fill: none; stroke: #b0b0b0; stroke-opacity: 0.3; stroke-width: 0.8; stroke-linecap: square"/>
     </g>
     <g id="line2d_20">
      <g>
       <use xlink:href="#m0f14386f46" x="76.849002" y="277.006281" style="stroke: #000000; stroke-width: 0.6"/>
      </g>
     </g>
    </g>
    <g id="xtick_11">
     <g id="line2d_21">
      <path d="M 80.724682 277.006281 
L 80.724682 21.558281 
" clip-path="url(#peb544bfe1c)" style="fill: none; stroke: #b0b0b0; stroke-opacity: 0.3; stroke-width: 0.8; stroke-linecap: square"/>
     </g>
     <g id="line2d_22">
      <g>
       <use xlink:href="#m0f14386f46" x="80.724682" y="277.006281" style="stroke: #000000; stroke-width: 0.6"/>
      </g>
     </g>
    </g>
    <g id="xtick_12">
     <g id="line2d_23">
      <path d="M 106.99978 277.006281 
L 106.99978 21.558281 
" clip-path="url(#peb544bfe1c)" style="fill: none; stroke: #b0b0b0; stroke-opacity: 0.3; stroke-width: 0.8; stroke-linecap: square"/>
     </g>
     <g id="line2d_24">
      <g>
       <use xlink:href="#m0f14386f46" x="106.99978" y="277.006281" style="stroke: #000000; stroke-width: 0.6"/>
      </g>
     </g>
    </g>
    <g id="xtick_13">
     <g id="line2d_25">
      <path d="M 120.341712 277.006281 
L 120.341712 21.558281 
" clip-path="url(#peb544bfe1c)" style="fill: none; stroke: #b0b0b0; stroke-opacity: 0.3; stroke-width: 0.8; stroke-linecap: square"/>
     </g>
     <g id="line2d_26">
      <g>
       <use xlink:href="#m0f14386f46" x="120.341712" y="277.006281" style="stroke: #000000; stroke-width: 0.6"/>
      </g>
     </g>
    </g>
    <g id="xtick_14">
     <g id="line2d_27">
      <path d="M 129.807964 277.006281 
L 129.807964 21.558281 
" clip-path="url(#peb544bfe1c)" style="fill: none; stroke: #b0b0b0; stroke-opacity: 0.3; stroke-width: 0.8; stroke-linecap: square"/>
     </g>
     <g id="line2d_28">
      <g>
       <use xlink:href="#m0f14386f46" x="129.807964" y="277.006281" style="stroke: #000000; stroke-width: 0.6"/>
      </g>
     </g>
    </g>
    <g id="xtick_15">
     <g id="line2d_29">
      <path d="M 137.150559 277.006281 
L 137.150559 21.558281 
" clip-path="url(#peb544bfe1c)" style="fill: none; stroke: #b0b0b0; stroke-opacity: 0.3; stroke-width: 0.8; stroke-linecap: square"/>
     </g>
     <g id="line2d_30">
      <g>
       <use xlink:href="#m0f14386f46" x="137.150559" y="277.006281" style="stroke: #000000; stroke-width: 0.6"/>
      </g>
     </g>
    </g>
    <g id="xtick_16">
     <g id="line2d_31">
      <path d="M 143.149896 277.006281 
L 143.149896 21.558281 
" clip-path="url(#peb544bfe1c)" style="fill: none; stroke: #b0b0b0; stroke-opacity: 0.3; stroke-width: 0.8; stroke-linecap: square"/>
     </g>
     <g id="line2d_32">
      <g>
       <use xlink:href="#m0f14386f46" x="143.149896" y="277.006281" style="stroke: #000000; stroke-width: 0.6"/>
      </g>
     </g>
    </g>
    <g id="xtick_17">
     <g id="line2d_33">
      <path d="M 148.222263 277.006281 
L 148.222263 21.558281 
" clip-path="url(#peb544bfe1c)" style="fill: none; stroke: #b0b0b0; stroke-opacity: 0.3; stroke-width: 0.8; stroke-linecap: square"/>
     </g>
     <g id="line2d_34">
      <g>
       <use xlink:href="#m0f14386f46" x="148.222263" y="277.006281" style="stroke: #000000; stroke-width: 0.6"/>
      </g>
     </g>
    </g>
    <g id="xtick_18">
     <g id="line2d_35">
      <path d="M 152.616147 277.006281 
L 152.616147 21.558281 
" clip-path="url(#peb544bfe1c)" style="fill: none; stroke: #b0b0b0; stroke-opacity: 0.3; stroke-width: 0.8; stroke-linecap: square"/>
     </g>
     <g id="line2d_36">
      <g>
       <use xlink:href="#m0f14386f46" x="152.616147" y="277.006281" style="stroke: #000000; stroke-width: 0.6"/>
      </g>
     </g>
    </g>
    <g id="xtick_19">
     <g id="line2d_37">
      <path d="M 156.491828 277.006281 
L 156.491828 21.558281 
" clip-path="url(#peb544bfe1c)" style="fill: none; stroke: #b0b0b0; stroke-opacity: 0.3; stroke-width: 0.8; stroke-linecap: square"/>
     </g>
     <g id="line2d_38">
      <g>
       <use xlink:href="#m0f14386f46" x="156.491828" y="277.006281" style="stroke: #000000; stroke-width: 0.6"/>
      </g>
     </g>
    </g>
    <g id="xtick_20">
     <g id="line2d_39">
      <path d="M 182.766926 277.006281 
L 182.766926 21.558281 
" clip-path="url(#peb544bfe1c)" style="fill: none; stroke: #b0b0b0; stroke-opacity: 0.3; stroke-width: 0.8; stroke-linecap: square"/>
     </g>
     <g id="line2d_40">
      <g>
       <use xlink:href="#m0f14386f46" x="182.766926" y="277.006281" style="stroke: #000000; stroke-width: 0.6"/>
      </g>
     </g>
    </g>
    <g id="xtick_21">
     <g id="line2d_41">
      <path d="M 196.108858 277.006281 
L 196.108858 21.558281 
" clip-path="url(#peb544bfe1c)" style="fill: none; stroke: #b0b0b0; stroke-opacity: 0.3; stroke-width: 0.8; stroke-linecap: square"/>
     </g>
     <g id="line2d_42">
      <g>
       <use xlink:href="#m0f14386f46" x="196.108858" y="277.006281" style="stroke: #000000; stroke-width: 0.6"/>
      </g>
     </g>
    </g>
    <g id="xtick_22">
     <g id="line2d_43">
      <path d="M 205.575109 277.006281 
L 205.575109 21.558281 
" clip-path="url(#peb544bfe1c)" style="fill: none; stroke: #b0b0b0; stroke-opacity: 0.3; stroke-width: 0.8; stroke-linecap: square"/>
     </g>
     <g id="line2d_44">
      <g>
       <use xlink:href="#m0f14386f46" x="205.575109" y="277.006281" style="stroke: #000000; stroke-width: 0.6"/>
      </g>
     </g>
    </g>
    <g id="xtick_23">
     <g id="line2d_45">
      <path d="M 212.917704 277.006281 
L 212.917704 21.558281 
" clip-path="url(#peb544bfe1c)" style="fill: none; stroke: #b0b0b0; stroke-opacity: 0.3; stroke-width: 0.8; stroke-linecap: square"/>
     </g>
     <g id="line2d_46">
      <g>
       <use xlink:href="#m0f14386f46" x="212.917704" y="277.006281" style="stroke: #000000; stroke-width: 0.6"/>
      </g>
     </g>
    </g>
    <g id="xtick_24">
     <g id="line2d_47">
      <path d="M 218.917041 277.006281 
L 218.917041 21.558281 
" clip-path="url(#peb544bfe1c)" style="fill: none; stroke: #b0b0b0; stroke-opacity: 0.3; stroke-width: 0.8; stroke-linecap: square"/>
     </g>
     <g id="line2d_48">
      <g>
       <use xlink:href="#m0f14386f46" x="218.917041" y="277.006281" style="stroke: #000000; stroke-width: 0.6"/>
      </g>
     </g>
    </g>
    <g id="xtick_25">
     <g id="line2d_49">
      <path d="M 223.989408 277.006281 
L 223.989408 21.558281 
" clip-path="url(#peb544bfe1c)" style="fill: none; stroke: #b0b0b0; stroke-opacity: 0.3; stroke-width: 0.8; stroke-linecap: square"/>
     </g>
     <g id="line2d_50">
      <g>
       <use xlink:href="#m0f14386f46" x="223.989408" y="277.006281" style="stroke: #000000; stroke-width: 0.6"/>
      </g>
     </g>
    </g>
    <g id="xtick_26">
     <g id="line2d_51">
      <path d="M 228.383293 277.006281 
L 228.383293 21.558281 
" clip-path="url(#peb544bfe1c)" style="fill: none; stroke: #b0b0b0; stroke-opacity: 0.3; stroke-width: 0.8; stroke-linecap: square"/>
     </g>
     <g id="line2d_52">
      <g>
       <use xlink:href="#m0f14386f46" x="228.383293" y="277.006281" style="stroke: #000000; stroke-width: 0.6"/>
      </g>
     </g>
    </g>
    <g id="xtick_27">
     <g id="line2d_53">
      <path d="M 232.258973 277.006281 
L 232.258973 21.558281 
" clip-path="url(#peb544bfe1c)" style="fill: none; stroke: #b0b0b0; stroke-opacity: 0.3; stroke-width: 0.8; stroke-linecap: square"/>
     </g>
     <g id="line2d_54">
      <g>
       <use xlink:href="#m0f14386f46" x="232.258973" y="277.006281" style="stroke: #000000; stroke-width: 0.6"/>
      </g>
     </g>
    </g>
    <g id="xtick_28">
     <g id="line2d_55">
      <path d="M 258.534071 277.006281 
L 258.534071 21.558281 
" clip-path="url(#peb544bfe1c)" style="fill: none; stroke: #b0b0b0; stroke-opacity: 0.3; stroke-width: 0.8; stroke-linecap: square"/>
     </g>
     <g id="line2d_56">
      <g>
       <use xlink:href="#m0f14386f46" x="258.534071" y="277.006281" style="stroke: #000000; stroke-width: 0.6"/>
      </g>
     </g>
    </g>
    <g id="xtick_29">
     <g id="line2d_57">
      <path d="M 271.876003 277.006281 
L 271.876003 21.558281 
" clip-path="url(#peb544bfe1c)" style="fill: none; stroke: #b0b0b0; stroke-opacity: 0.3; stroke-width: 0.8; stroke-linecap: square"/>
     </g>
     <g id="line2d_58">
      <g>
       <use xlink:href="#m0f14386f46" x="271.876003" y="277.006281" style="stroke: #000000; stroke-width: 0.6"/>
      </g>
     </g>
    </g>
    <g id="xtick_30">
     <g id="line2d_59">
      <path d="M 281.342255 277.006281 
L 281.342255 21.558281 
" clip-path="url(#peb544bfe1c)" style="fill: none; stroke: #b0b0b0; stroke-opacity: 0.3; stroke-width: 0.8; stroke-linecap: square"/>
     </g>
     <g id="line2d_60">
      <g>
       <use xlink:href="#m0f14386f46" x="281.342255" y="277.006281" style="stroke: #000000; stroke-width: 0.6"/>
      </g>
     </g>
    </g>
    <g id="xtick_31">
     <g id="line2d_61">
      <path d="M 288.68485 277.006281 
L 288.68485 21.558281 
" clip-path="url(#peb544bfe1c)" style="fill: none; stroke: #b0b0b0; stroke-opacity: 0.3; stroke-width: 0.8; stroke-linecap: square"/>
     </g>
     <g id="line2d_62">
      <g>
       <use xlink:href="#m0f14386f46" x="288.68485" y="277.006281" style="stroke: #000000; stroke-width: 0.6"/>
      </g>
     </g>
    </g>
    <g id="xtick_32">
     <g id="line2d_63">
      <path d="M 294.684187 277.006281 
L 294.684187 21.558281 
" clip-path="url(#peb544bfe1c)" style="fill: none; stroke: #b0b0b0; stroke-opacity: 0.3; stroke-width: 0.8; stroke-linecap: square"/>
     </g>
     <g id="line2d_64">
      <g>
       <use xlink:href="#m0f14386f46" x="294.684187" y="277.006281" style="stroke: #000000; stroke-width: 0.6"/>
      </g>
     </g>
    </g>
    <g id="xtick_33">
     <g id="line2d_65">
      <path d="M 299.756554 277.006281 
L 299.756554 21.558281 
" clip-path="url(#peb544bfe1c)" style="fill: none; stroke: #b0b0b0; stroke-opacity: 0.3; stroke-width: 0.8; stroke-linecap: square"/>
     </g>
     <g id="line2d_66">
      <g>
       <use xlink:href="#m0f14386f46" x="299.756554" y="277.006281" style="stroke: #000000; stroke-width: 0.6"/>
      </g>
     </g>
    </g>
    <g id="xtick_34">
     <g id="line2d_67">
      <path d="M 304.150438 277.006281 
L 304.150438 21.558281 
" clip-path="url(#peb544bfe1c)" style="fill: none; stroke: #b0b0b0; stroke-opacity: 0.3; stroke-width: 0.8; stroke-linecap: square"/>
     </g>
     <g id="line2d_68">
      <g>
       <use xlink:href="#m0f14386f46" x="304.150438" y="277.006281" style="stroke: #000000; stroke-width: 0.6"/>
      </g>
     </g>
    </g>
    <g id="xtick_35">
     <g id="line2d_69">
      <path d="M 308.026119 277.006281 
L 308.026119 21.558281 
" clip-path="url(#peb544bfe1c)" style="fill: none; stroke: #b0b0b0; stroke-opacity: 0.3; stroke-width: 0.8; stroke-linecap: square"/>
     </g>
     <g id="line2d_70">
      <g>
       <use xlink:href="#m0f14386f46" x="308.026119" y="277.006281" style="stroke: #000000; stroke-width: 0.6"/>
      </g>
     </g>
    </g>
    <g id="xtick_36">
     <g id="line2d_71">
      <path d="M 334.301217 277.006281 
L 334.301217 21.558281 
" clip-path="url(#peb544bfe1c)" style="fill: none; stroke: #b0b0b0; stroke-opacity: 0.3; stroke-width: 0.8; stroke-linecap: square"/>
     </g>
     <g id="line2d_72">
      <g>
       <use xlink:href="#m0f14386f46" x="334.301217" y="277.006281" style="stroke: #000000; stroke-width: 0.6"/>
      </g>
     </g>
    </g>
    <g id="xtick_37">
     <g id="line2d_73">
      <path d="M 347.643149 277.006281 
L 347.643149 21.558281 
" clip-path="url(#peb544bfe1c)" style="fill: none; stroke: #b0b0b0; stroke-opacity: 0.3; stroke-width: 0.8; stroke-linecap: square"/>
     </g>
     <g id="line2d_74">
      <g>
       <use xlink:href="#m0f14386f46" x="347.643149" y="277.006281" style="stroke: #000000; stroke-width: 0.6"/>
      </g>
     </g>
    </g>
    <g id="xtick_38">
     <g id="line2d_75">
      <path d="M 357.1094 277.006281 
L 357.1094 21.558281 
" clip-path="url(#peb544bfe1c)" style="fill: none; stroke: #b0b0b0; stroke-opacity: 0.3; stroke-width: 0.8; stroke-linecap: square"/>
     </g>
     <g id="line2d_76">
      <g>
       <use xlink:href="#m0f14386f46" x="357.1094" y="277.006281" style="stroke: #000000; stroke-width: 0.6"/>
      </g>
     </g>
    </g>
    <g id="xtick_39">
     <g id="line2d_77">
      <path d="M 364.451995 277.006281 
L 364.451995 21.558281 
" clip-path="url(#peb544bfe1c)" style="fill: none; stroke: #b0b0b0; stroke-opacity: 0.3; stroke-width: 0.8; stroke-linecap: square"/>
     </g>
     <g id="line2d_78">
      <g>
       <use xlink:href="#m0f14386f46" x="364.451995" y="277.006281" style="stroke: #000000; stroke-width: 0.6"/>
      </g>
     </g>
    </g>
    <g id="xtick_40">
     <g id="line2d_79">
      <path d="M 370.451332 277.006281 
L 370.451332 21.558281 
" clip-path="url(#peb544bfe1c)" style="fill: none; stroke: #b0b0b0; stroke-opacity: 0.3; stroke-width: 0.8; stroke-linecap: square"/>
     </g>
     <g id="line2d_80">
      <g>
       <use xlink:href="#m0f14386f46" x="370.451332" y="277.006281" style="stroke: #000000; stroke-width: 0.6"/>
      </g>
     </g>
    </g>
    <g id="xtick_41">
     <g id="line2d_81">
      <path d="M 375.523699 277.006281 
L 375.523699 21.558281 
" clip-path="url(#peb544bfe1c)" style="fill: none; stroke: #b0b0b0; stroke-opacity: 0.3; stroke-width: 0.8; stroke-linecap: square"/>
     </g>
     <g id="line2d_82">
      <g>
       <use xlink:href="#m0f14386f46" x="375.523699" y="277.006281" style="stroke: #000000; stroke-width: 0.6"/>
      </g>
     </g>
    </g>
    <g id="xtick_42">
     <g id="line2d_83">
      <path d="M 379.917584 277.006281 
L 379.917584 21.558281 
" clip-path="url(#peb544bfe1c)" style="fill: none; stroke: #b0b0b0; stroke-opacity: 0.3; stroke-width: 0.8; stroke-linecap: square"/>
     </g>
     <g id="line2d_84">
      <g>
       <use xlink:href="#m0f14386f46" x="379.917584" y="277.006281" style="stroke: #000000; stroke-width: 0.6"/>
      </g>
     </g>
    </g>
    <g id="xtick_43">
     <g id="line2d_85">
      <path d="M 383.793264 277.006281 
L 383.793264 21.558281 
" clip-path="url(#peb544bfe1c)" style="fill: none; stroke: #b0b0b0; stroke-opacity: 0.3; stroke-width: 0.8; stroke-linecap: square"/>
     </g>
     <g id="line2d_86">
      <g>
       <use xlink:href="#m0f14386f46" x="383.793264" y="277.006281" style="stroke: #000000; stroke-width: 0.6"/>
      </g>
     </g>
    </g>
    <g id="xtick_44">
     <g id="line2d_87">
      <path d="M 410.068362 277.006281 
L 410.068362 21.558281 
" clip-path="url(#peb544bfe1c)" style="fill: none; stroke: #b0b0b0; stroke-opacity: 0.3; stroke-width: 0.8; stroke-linecap: square"/>
     </g>
     <g id="line2d_88">
      <g>
       <use xlink:href="#m0f14386f46" x="410.068362" y="277.006281" style="stroke: #000000; stroke-width: 0.6"/>
      </g>
     </g>
    </g>
    <g id="xtick_45">
     <g id="line2d_89">
      <path d="M 423.410294 277.006281 
L 423.410294 21.558281 
" clip-path="url(#peb544bfe1c)" style="fill: none; stroke: #b0b0b0; stroke-opacity: 0.3; stroke-width: 0.8; stroke-linecap: square"/>
     </g>
     <g id="line2d_90">
      <g>
       <use xlink:href="#m0f14386f46" x="423.410294" y="277.006281" style="stroke: #000000; stroke-width: 0.6"/>
      </g>
     </g>
    </g>
    <g id="xtick_46">
     <g id="line2d_91">
      <path d="M 432.876545 277.006281 
L 432.876545 21.558281 
" clip-path="url(#peb544bfe1c)" style="fill: none; stroke: #b0b0b0; stroke-opacity: 0.3; stroke-width: 0.8; stroke-linecap: square"/>
     </g>
     <g id="line2d_92">
      <g>
       <use xlink:href="#m0f14386f46" x="432.876545" y="277.006281" style="stroke: #000000; stroke-width: 0.6"/>
      </g>
     </g>
    </g>
    <g id="xtick_47">
     <g id="line2d_93">
      <path d="M 440.219141 277.006281 
L 440.219141 21.558281 
" clip-path="url(#peb544bfe1c)" style="fill: none; stroke: #b0b0b0; stroke-opacity: 0.3; stroke-width: 0.8; stroke-linecap: square"/>
     </g>
     <g id="line2d_94">
      <g>
       <use xlink:href="#m0f14386f46" x="440.219141" y="277.006281" style="stroke: #000000; stroke-width: 0.6"/>
      </g>
     </g>
    </g>
    <g id="xtick_48">
     <g id="line2d_95">
      <path d="M 446.218477 277.006281 
L 446.218477 21.558281 
" clip-path="url(#peb544bfe1c)" style="fill: none; stroke: #b0b0b0; stroke-opacity: 0.3; stroke-width: 0.8; stroke-linecap: square"/>
     </g>
     <g id="line2d_96">
      <g>
       <use xlink:href="#m0f14386f46" x="446.218477" y="277.006281" style="stroke: #000000; stroke-width: 0.6"/>
      </g>
     </g>
    </g>
    <g id="xtick_49">
     <g id="line2d_97">
      <path d="M 451.290845 277.006281 
L 451.290845 21.558281 
" clip-path="url(#peb544bfe1c)" style="fill: none; stroke: #b0b0b0; stroke-opacity: 0.3; stroke-width: 0.8; stroke-linecap: square"/>
     </g>
     <g id="line2d_98">
      <g>
       <use xlink:href="#m0f14386f46" x="451.290845" y="277.006281" style="stroke: #000000; stroke-width: 0.6"/>
      </g>
     </g>
    </g>
    <g id="xtick_50">
     <g id="line2d_99">
      <path d="M 455.684729 277.006281 
L 455.684729 21.558281 
" clip-path="url(#peb544bfe1c)" style="fill: none; stroke: #b0b0b0; stroke-opacity: 0.3; stroke-width: 0.8; stroke-linecap: square"/>
     </g>
     <g id="line2d_100">
      <g>
       <use xlink:href="#m0f14386f46" x="455.684729" y="277.006281" style="stroke: #000000; stroke-width: 0.6"/>
      </g>
     </g>
    </g>
    <g id="xtick_51">
     <g id="line2d_101">
      <path d="M 459.56041 277.006281 
L 459.56041 21.558281 
" clip-path="url(#peb544bfe1c)" style="fill: none; stroke: #b0b0b0; stroke-opacity: 0.3; stroke-width: 0.8; stroke-linecap: square"/>
     </g>
     <g id="line2d_102">
      <g>
       <use xlink:href="#m0f14386f46" x="459.56041" y="277.006281" style="stroke: #000000; stroke-width: 0.6"/>
      </g>
     </g>
    </g>
    <g id="xtick_52">
     <g id="line2d_103">
      <path d="M 485.835507 277.006281 
L 485.835507 21.558281 
" clip-path="url(#peb544bfe1c)" style="fill: none; stroke: #b0b0b0; stroke-opacity: 0.3; stroke-width: 0.8; stroke-linecap: square"/>
     </g>
     <g id="line2d_104">
      <g>
       <use xlink:href="#m0f14386f46" x="485.835507" y="277.006281" style="stroke: #000000; stroke-width: 0.6"/>
      </g>
     </g>
    </g>
    <g id="xtick_53">
     <g id="line2d_105">
      <path d="M 499.177439 277.006281 
L 499.177439 21.558281 
" clip-path="url(#peb544bfe1c)" style="fill: none; stroke: #b0b0b0; stroke-opacity: 0.3; stroke-width: 0.8; stroke-linecap: square"/>
     </g>
     <g id="line2d_106">
      <g>
       <use xlink:href="#m0f14386f46" x="499.177439" y="277.006281" style="stroke: #000000; stroke-width: 0.6"/>
      </g>
     </g>
    </g>
    <g id="xtick_54">
     <g id="line2d_107">
      <path d="M 508.643691 277.006281 
L 508.643691 21.558281 
" clip-path="url(#peb544bfe1c)" style="fill: none; stroke: #b0b0b0; stroke-opacity: 0.3; stroke-width: 0.8; stroke-linecap: square"/>
     </g>
     <g id="line2d_108">
      <g>
       <use xlink:href="#m0f14386f46" x="508.643691" y="277.006281" style="stroke: #000000; stroke-width: 0.6"/>
      </g>
     </g>
    </g>
    <g id="xtick_55">
     <g id="line2d_109">
      <path d="M 515.986286 277.006281 
L 515.986286 21.558281 
" clip-path="url(#peb544bfe1c)" style="fill: none; stroke: #b0b0b0; stroke-opacity: 0.3; stroke-width: 0.8; stroke-linecap: square"/>
     </g>
     <g id="line2d_110">
      <g>
       <use xlink:href="#m0f14386f46" x="515.986286" y="277.006281" style="stroke: #000000; stroke-width: 0.6"/>
      </g>
     </g>
    </g>
    <g id="xtick_56">
     <g id="line2d_111">
      <path d="M 521.985623 277.006281 
L 521.985623 21.558281 
" clip-path="url(#peb544bfe1c)" style="fill: none; stroke: #b0b0b0; stroke-opacity: 0.3; stroke-width: 0.8; stroke-linecap: square"/>
     </g>
     <g id="line2d_112">
      <g>
       <use xlink:href="#m0f14386f46" x="521.985623" y="277.006281" style="stroke: #000000; stroke-width: 0.6"/>
      </g>
     </g>
    </g>
    <g id="xtick_57">
     <g id="line2d_113">
      <path d="M 527.05799 277.006281 
L 527.05799 21.558281 
" clip-path="url(#peb544bfe1c)" style="fill: none; stroke: #b0b0b0; stroke-opacity: 0.3; stroke-width: 0.8; stroke-linecap: square"/>
     </g>
     <g id="line2d_114">
      <g>
       <use xlink:href="#m0f14386f46" x="527.05799" y="277.006281" style="stroke: #000000; stroke-width: 0.6"/>
      </g>
     </g>
    </g>
    <g id="xtick_58">
     <g id="line2d_115">
      <path d="M 531.451874 277.006281 
L 531.451874 21.558281 
" clip-path="url(#peb544bfe1c)" style="fill: none; stroke: #b0b0b0; stroke-opacity: 0.3; stroke-width: 0.8; stroke-linecap: square"/>
     </g>
     <g id="line2d_116">
      <g>
       <use xlink:href="#m0f14386f46" x="531.451874" y="277.006281" style="stroke: #000000; stroke-width: 0.6"/>
      </g>
     </g>
    </g>
    <g id="xtick_59">
     <g id="line2d_117">
      <path d="M 535.327555 277.006281 
L 535.327555 21.558281 
" clip-path="url(#peb544bfe1c)" style="fill: none; stroke: #b0b0b0; stroke-opacity: 0.3; stroke-width: 0.8; stroke-linecap: square"/>
     </g>
     <g id="line2d_118">
      <g>
       <use xlink:href="#m0f14386f46" x="535.327555" y="277.006281" style="stroke: #000000; stroke-width: 0.6"/>
      </g>
     </g>
    </g>
    <g id="text_8">
     <!-- N (entries) -->
     <g transform="translate(287.098191 302.587375) scale(0.09 -0.09)">
      <defs>
       <path id="DejaVuSans-4e" d="M 628 4666 
L 1478 4666 
L 3547 763 
L 3547 4666 
L 4159 4666 
L 4159 0 
L 3309 0 
L 1241 3903 
L 1241 0 
L 628 0 
L 628 4666 
z
" transform="scale(0.015625)"/>
       <path id="DejaVuSans-20" transform="scale(0.015625)"/>
       <path id="DejaVuSans-28" d="M 1984 4856 
Q 1566 4138 1362 3434 
Q 1159 2731 1159 2009 
Q 1159 1288 1364 580 
Q 1569 -128 1984 -844 
L 1484 -844 
Q 1016 -109 783 600 
Q 550 1309 550 2009 
Q 550 2706 781 3412 
Q 1013 4119 1484 4856 
L 1984 4856 
z
" transform="scale(0.015625)"/>
       <path id="DejaVuSans-65" d="M 3597 1894 
L 3597 1613 
L 953 1613 
Q 991 1019 1311 708 
Q 1631 397 2203 397 
Q 2534 397 2845 478 
Q 3156 559 3463 722 
L 3463 178 
Q 3153 47 2828 -22 
Q 2503 -91 2169 -91 
Q 1331 -91 842 396 
Q 353 884 353 1716 
Q 353 2575 817 3079 
Q 1281 3584 2069 3584 
Q 2775 3584 3186 3129 
Q 3597 2675 3597 1894 
z
M 3022 2063 
Q 3016 2534 2758 2815 
Q 2500 3097 2075 3097 
Q 1594 3097 1305 2825 
Q 1016 2553 972 2059 
L 3022 2063 
z
" transform="scale(0.015625)"/>
       <path id="DejaVuSans-6e" d="M 3513 2113 
L 3513 0 
L 2938 0 
L 2938 2094 
Q 2938 2591 2744 2837 
Q 2550 3084 2163 3084 
Q 1697 3084 1428 2787 
Q 1159 2491 1159 1978 
L 1159 0 
L 581 0 
L 581 3500 
L 1159 3500 
L 1159 2956 
Q 1366 3272 1645 3428 
Q 1925 3584 2291 3584 
Q 2894 3584 3203 3211 
Q 3513 2838 3513 2113 
z
" transform="scale(0.015625)"/>
       <path id="DejaVuSans-74" d="M 1172 4494 
L 1172 3500 
L 2356 3500 
L 2356 3053 
L 1172 3053 
L 1172 1153 
Q 1172 725 1289 603 
Q 1406 481 1766 481 
L 2356 481 
L 2356 0 
L 1766 0 
Q 1100 0 847 248 
Q 594 497 594 1153 
L 594 3053 
L 172 3053 
L 172 3500 
L 594 3500 
L 594 4494 
L 1172 4494 
z
" transform="scale(0.015625)"/>
       <path id="DejaVuSans-72" d="M 2631 2963 
Q 2534 3019 2420 3045 
Q 2306 3072 2169 3072 
Q 1681 3072 1420 2755 
Q 1159 2438 1159 1844 
L 1159 0 
L 581 0 
L 581 3500 
L 1159 3500 
L 1159 2956 
Q 1341 3275 1631 3429 
Q 1922 3584 2338 3584 
Q 2397 3584 2469 3576 
Q 2541 3569 2628 3553 
L 2631 2963 
z
" transform="scale(0.015625)"/>
       <path id="DejaVuSans-69" d="M 603 3500 
L 1178 3500 
L 1178 0 
L 603 0 
L 603 3500 
z
M 603 4863 
L 1178 4863 
L 1178 4134 
L 603 4134 
L 603 4863 
z
" transform="scale(0.015625)"/>
       <path id="DejaVuSans-73" d="M 2834 3397 
L 2834 2853 
Q 2591 2978 2328 3040 
Q 2066 3103 1784 3103 
Q 1356 3103 1142 2972 
Q 928 2841 928 2578 
Q 928 2378 1081 2264 
Q 1234 2150 1697 2047 
L 1894 2003 
Q 2506 1872 2764 1633 
Q 3022 1394 3022 966 
Q 3022 478 2636 193 
Q 2250 -91 1575 -91 
Q 1294 -91 989 -36 
Q 684 19 347 128 
L 347 722 
Q 666 556 975 473 
Q 1284 391 1588 391 
Q 1994 391 2212 530 
Q 2431 669 2431 922 
Q 2431 1156 2273 1281 
Q 2116 1406 1581 1522 
L 1381 1569 
Q 847 1681 609 1914 
Q 372 2147 372 2553 
Q 372 3047 722 3315 
Q 1072 3584 1716 3584 
Q 2034 3584 2315 3537 
Q 2597 3491 2834 3397 
z
" transform="scale(0.015625)"/>
       <path id="DejaVuSans-29" d="M 513 4856 
L 1013 4856 
Q 1481 4119 1714 3412 
Q 1947 2706 1947 2009 
Q 1947 1309 1714 600 
Q 1481 -109 1013 -844 
L 513 -844 
Q 928 -128 1133 580 
Q 1338 1288 1338 2009 
Q 1338 2731 1133 3434 
Q 928 4138 513 4856 
z
" transform="scale(0.015625)"/>
      </defs>
      <use xlink:href="#DejaVuSans-4e"/>
      <use xlink:href="#DejaVuSans-20" transform="translate(74.804688 0)"/>
      <use xlink:href="#DejaVuSans-28" transform="translate(106.591797 0)"/>
      <use xlink:href="#DejaVuSans-65" transform="translate(145.605469 0)"/>
      <use xlink:href="#DejaVuSans-6e" transform="translate(207.128906 0)"/>
      <use xlink:href="#DejaVuSans-74" transform="translate(270.507812 0)"/>
      <use xlink:href="#DejaVuSans-72" transform="translate(309.716797 0)"/>
      <use xlink:href="#DejaVuSans-69" transform="translate(350.830078 0)"/>
      <use xlink:href="#DejaVuSans-65" transform="translate(378.613281 0)"/>
      <use xlink:href="#DejaVuSans-73" transform="translate(440.136719 0)"/>
      <use xlink:href="#DejaVuSans-29" transform="translate(492.236328 0)"/>
     </g>
    </g>
   </g>
   <g id="matplotlib.axis_2">
    <g id="ytick_1">
     <g id="line2d_119">
      <path d="M 61.510313 195.723879 
L 560.49857 195.723879 
" clip-path="url(#peb544bfe1c)" style="fill: none; stroke: #b0b0b0; stroke-opacity: 0.3; stroke-width: 0.8; stroke-linecap: square"/>
     </g>
     <g id="line2d_120">
      <defs>
       <path id="m98d85766ed" d="M 0 0 
L -2 0 
" style="stroke: #000000; stroke-width: 0.6"/>
      </defs>
      <g>
       <use xlink:href="#m98d85766ed" x="61.510313" y="195.723879" style="stroke: #000000; stroke-width: 0.6"/>
      </g>
     </g>
     <g id="text_9">
      <!-- $\mathdefault{2\times10^{1}}$ -->
      <g transform="translate(19.910313 199.523098) scale(0.1 -0.1)">
       <defs>
        <path id="DejaVuSans-d7" d="M 4488 3438 
L 3059 2003 
L 4488 575 
L 4116 197 
L 2681 1631 
L 1247 197 
L 878 575 
L 2303 2003 
L 878 3438 
L 1247 3816 
L 2681 2381 
L 4116 3816 
L 4488 3438 
z
" transform="scale(0.015625)"/>
       </defs>
       <use xlink:href="#DejaVuSans-32" transform="translate(0 0.684375)"/>
       <use xlink:href="#DejaVuSans-d7" transform="translate(83.105469 0.684375)"/>
       <use xlink:href="#DejaVuSans-31" transform="translate(186.376953 0.684375)"/>
       <use xlink:href="#DejaVuSans-30" transform="translate(250 0.684375)"/>
       <use xlink:href="#DejaVuSans-31" transform="translate(314.580078 38.965625) scale(0.7)"/>
      </g>
     </g>
    </g>
    <g id="ytick_2">
     <g id="line2d_121">
      <path d="M 61.510313 139.004139 
L 560.49857 139.004139 
" clip-path="url(#peb544bfe1c)" style="fill: none; stroke: #b0b0b0; stroke-opacity: 0.3; stroke-width: 0.8; stroke-linecap: square"/>
     </g>
     <g id="line2d_122">
      <g>
       <use xlink:href="#m98d85766ed" x="61.510313" y="139.004139" style="stroke: #000000; stroke-width: 0.6"/>
      </g>
     </g>
     <g id="text_10">
      <!-- $\mathdefault{3\times10^{1}}$ -->
      <g transform="translate(19.910313 142.803358) scale(0.1 -0.1)">
       <use xlink:href="#DejaVuSans-33" transform="translate(0 0.684375)"/>
       <use xlink:href="#DejaVuSans-d7" transform="translate(83.105469 0.684375)"/>
       <use xlink:href="#DejaVuSans-31" transform="translate(186.376953 0.684375)"/>
       <use xlink:href="#DejaVuSans-30" transform="translate(250 0.684375)"/>
       <use xlink:href="#DejaVuSans-31" transform="translate(314.580078 38.965625) scale(0.7)"/>
      </g>
     </g>
    </g>
    <g id="ytick_3">
     <g id="line2d_123">
      <path d="M 61.510313 98.760843 
L 560.49857 98.760843 
" clip-path="url(#peb544bfe1c)" style="fill: none; stroke: #b0b0b0; stroke-opacity: 0.3; stroke-width: 0.8; stroke-linecap: square"/>
     </g>
     <g id="line2d_124">
      <g>
       <use xlink:href="#m98d85766ed" x="61.510313" y="98.760843" style="stroke: #000000; stroke-width: 0.6"/>
      </g>
     </g>
     <g id="text_11">
      <!-- $\mathdefault{4\times10^{1}}$ -->
      <g transform="translate(19.910313 102.560062) scale(0.1 -0.1)">
       <use xlink:href="#DejaVuSans-34" transform="translate(0 0.684375)"/>
       <use xlink:href="#DejaVuSans-d7" transform="translate(83.105469 0.684375)"/>
       <use xlink:href="#DejaVuSans-31" transform="translate(186.376953 0.684375)"/>
       <use xlink:href="#DejaVuSans-30" transform="translate(250 0.684375)"/>
       <use xlink:href="#DejaVuSans-31" transform="translate(314.580078 38.965625) scale(0.7)"/>
      </g>
     </g>
    </g>
    <g id="ytick_4">
     <g id="line2d_125">
      <path d="M 61.510313 67.545718 
L 560.49857 67.545718 
" clip-path="url(#peb544bfe1c)" style="fill: none; stroke: #b0b0b0; stroke-opacity: 0.3; stroke-width: 0.8; stroke-linecap: square"/>
     </g>
     <g id="line2d_126">
      <g>
       <use xlink:href="#m98d85766ed" x="61.510313" y="67.545718" style="stroke: #000000; stroke-width: 0.6"/>
      </g>
     </g>
    </g>
    <g id="ytick_5">
     <g id="line2d_127">
      <path d="M 61.510313 42.041103 
L 560.49857 42.041103 
" clip-path="url(#peb544bfe1c)" style="fill: none; stroke: #b0b0b0; stroke-opacity: 0.3; stroke-width: 0.8; stroke-linecap: square"/>
     </g>
     <g id="line2d_128">
      <g>
       <use xlink:href="#m98d85766ed" x="61.510313" y="42.041103" style="stroke: #000000; stroke-width: 0.6"/>
      </g>
     </g>
     <g id="text_12">
      <!-- $\mathdefault{6\times10^{1}}$ -->
      <g transform="translate(19.910313 45.840322) scale(0.1 -0.1)">
       <use xlink:href="#DejaVuSans-36" transform="translate(0 0.684375)"/>
       <use xlink:href="#DejaVuSans-d7" transform="translate(83.105469 0.684375)"/>
       <use xlink:href="#DejaVuSans-31" transform="translate(186.376953 0.684375)"/>
       <use xlink:href="#DejaVuSans-30" transform="translate(250 0.684375)"/>
       <use xlink:href="#DejaVuSans-31" transform="translate(314.580078 38.965625) scale(0.7)"/>
      </g>
     </g>
    </g>
    <g id="text_13">
     <!-- bytes/entry -->
     <g transform="translate(14.038594 175.094) rotate(-90) scale(0.09 -0.09)">
      <defs>
       <path id="DejaVuSans-62" d="M 3116 1747 
Q 3116 2381 2855 2742 
Q 2594 3103 2138 3103 
Q 1681 3103 1420 2742 
Q 1159 2381 1159 1747 
Q 1159 1113 1420 752 
Q 1681 391 2138 391 
Q 2594 391 2855 752 
Q 3116 1113 3116 1747 
z
M 1159 2969 
Q 1341 3281 1617 3432 
Q 1894 3584 2278 3584 
Q 2916 3584 3314 3078 
Q 3713 2572 3713 1747 
Q 3713 922 3314 415 
Q 2916 -91 2278 -91 
Q 1894 -91 1617 61 
Q 1341 213 1159 525 
L 1159 0 
L 581 0 
L 581 4863 
L 1159 4863 
L 1159 2969 
z
" transform="scale(0.015625)"/>
       <path id="DejaVuSans-79" d="M 2059 -325 
Q 1816 -950 1584 -1140 
Q 1353 -1331 966 -1331 
L 506 -1331 
L 506 -850 
L 844 -850 
Q 1081 -850 1212 -737 
Q 1344 -625 1503 -206 
L 1606 56 
L 191 3500 
L 800 3500 
L 1894 763 
L 2988 3500 
L 3597 3500 
L 2059 -325 
z
" transform="scale(0.015625)"/>
       <path id="DejaVuSans-2f" d="M 1625 4666 
L 2156 4666 
L 531 -594 
L 0 -594 
L 1625 4666 
z
" transform="scale(0.015625)"/>
      </defs>
      <use xlink:href="#DejaVuSans-62"/>
      <use xlink:href="#DejaVuSans-79" transform="translate(63.476562 0)"/>
      <use xlink:href="#DejaVuSans-74" transform="translate(122.65625 0)"/>
      <use xlink:href="#DejaVuSans-65" transform="translate(161.865234 0)"/>
      <use xlink:href="#DejaVuSans-73" transform="translate(223.388672 0)"/>
      <use xlink:href="#DejaVuSans-2f" transform="translate(275.488281 0)"/>
      <use xlink:href="#DejaVuSans-65" transform="translate(309.179688 0)"/>
      <use xlink:href="#DejaVuSans-6e" transform="translate(370.703125 0)"/>
      <use xlink:href="#DejaVuSans-74" transform="translate(434.082031 0)"/>
      <use xlink:href="#DejaVuSans-72" transform="translate(473.291016 0)"/>
      <use xlink:href="#DejaVuSans-79" transform="translate(514.404297 0)"/>
     </g>
    </g>
   </g>
   <g id="line2d_129">
    <path d="M 84.191597 231.199885 
L 97.533529 249.12596 
L 110.875461 248.399267 
L 124.168608 265.395009 
L 137.543072 265.169488 
L 150.885004 225.107983 
L 164.241384 193.168219 
L 177.573684 208.690199 
L 190.915616 218.310676 
L 204.26611 227.96169 
L 217.608042 231.915029 
L 230.949974 232.271625 
L 244.293174 236.15851 
L 257.635106 241.884698 
L 270.977602 245.410501 
L 284.320285 232.787484 
L 297.662468 245.306042 
L 311.0044 227.349933 
L 324.346332 243.79612 
L 337.688189 243.411584 
L 351.030171 199.811237 
L 364.372136 212.287151 
L 377.714068 220.363911 
L 391.056029 229.916501 
L 404.397961 230.757824 
L 417.739887 233.802819 
L 431.081828 241.52364 
L 444.423757 231.260987 
L 457.765693 244.432754 
L 471.107623 229.351143 
L 484.449556 245.518616 
L 497.791489 244.974906 
L 511.133422 249.597151 
L 524.475354 249.647192 
L 537.817286 204.703633 
" clip-path="url(#peb544bfe1c)" style="fill: none; stroke: #3b82f6; stroke-width: 2; stroke-linecap: square"/>
    <defs>
     <path id="m8bae26359d" d="M 0 0.75 
C 0.198902 0.75 0.389685 0.670975 0.53033 0.53033 
C 0.670975 0.389685 0.75 0.198902 0.75 0 
C 0.75 -0.198902 0.670975 -0.389685 0.53033 -0.53033 
C 0.389685 -0.670975 0.198902 -0.75 0 -0.75 
C -0.198902 -0.75 -0.389685 -0.670975 -0.53033 -0.53033 
C -0.670975 -0.389685 -0.75 -0.198902 -0.75 0 
C -0.75 0.198902 -0.670975 0.389685 -0.53033 0.53033 
C -0.389685 0.670975 -0.198902 0.75 0 0.75 
z
" style="stroke: #3b82f6"/>
    </defs>
    <g clip-path="url(#peb544bfe1c)">
     <use xlink:href="#m8bae26359d" x="84.191597" y="231.199885" style="fill: #3b82f6; stroke: #3b82f6"/>
     <use xlink:href="#m8bae26359d" x="97.533529" y="249.12596" style="fill: #3b82f6; stroke: #3b82f6"/>
     <use xlink:href="#m8bae26359d" x="110.875461" y="248.399267" style="fill: #3b82f6; stroke: #3b82f6"/>
     <use xlink:href="#m8bae26359d" x="124.168608" y="265.395009" style="fill: #3b82f6; stroke: #3b82f6"/>
     <use xlink:href="#m8bae26359d" x="137.543072" y="265.169488" style="fill: #3b82f6; stroke: #3b82f6"/>
     <use xlink:href="#m8bae26359d" x="150.885004" y="225.107983" style="fill: #3b82f6; stroke: #3b82f6"/>
     <use xlink:href="#m8bae26359d" x="164.241384" y="193.168219" style="fill: #3b82f6; stroke: #3b82f6"/>
     <use xlink:href="#m8bae26359d" x="177.573684" y="208.690199" style="fill: #3b82f6; stroke: #3b82f6"/>
     <use xlink:href="#m8bae26359d" x="190.915616" y="218.310676" style="fill: #3b82f6; stroke: #3b82f6"/>
     <use xlink:href="#m8bae26359d" x="204.26611" y="227.96169" style="fill: #3b82f6; stroke: #3b82f6"/>
     <use xlink:href="#m8bae26359d" x="217.608042" y="231.915029" style="fill: #3b82f6; stroke: #3b82f6"/>
     <use xlink:href="#m8bae26359d" x="230.949974" y="232.271625" style="fill: #3b82f6; stroke: #3b82f6"/>
     <use xlink:href="#m8bae26359d" x="244.293174" y="236.15851" style="fill: #3b82f6; stroke: #3b82f6"/>
     <use xlink:href="#m8bae26359d" x="257.635106" y="241.884698" style="fill: #3b82f6; stroke: #3b82f6"/>
     <use xlink:href="#m8bae26359d" x="270.977602" y="245.410501" style="fill: #3b82f6; stroke: #3b82f6"/>
     <use xlink:href="#m8bae26359d" x="284.320285" y="232.787484" style="fill: #3b82f6; stroke: #3b82f6"/>
     <use xlink:href="#m8bae26359d" x="297.662468" y="245.306042" style="fill: #3b82f6; stroke: #3b82f6"/>
     <use xlink:href="#m8bae26359d" x="311.0044" y="227.349933" style="fill: #3b82f6; stroke: #3b82f6"/>
     <use xlink:href="#m8bae26359d" x="324.346332" y="243.79612" style="fill: #3b82f6; stroke: #3b82f6"/>
     <use xlink:href="#m8bae26359d" x="337.688189" y="243.411584" style="fill: #3b82f6; stroke: #3b82f6"/>
     <use xlink:href="#m8bae26359d" x="351.030171" y="199.811237" style="fill: #3b82f6; stroke: #3b82f6"/>
     <use xlink:href="#m8bae26359d" x="364.372136" y="212.287151" style="fill: #3b82f6; stroke: #3b82f6"/>
     <use xlink:href="#m8bae26359d" x="377.714068" y="220.363911" style="fill: #3b82f6; stroke: #3b82f6"/>
     <use xlink:href="#m8bae26359d" x="391.056029" y="229.916501" style="fill: #3b82f6; stroke: #3b82f6"/>
     <use xlink:href="#m8bae26359d" x="404.397961" y="230.757824" style="fill: #3b82f6; stroke: #3b82f6"/>
     <use xlink:href="#m8bae26359d" x="417.739887" y="233.802819" style="fill: #3b82f6; stroke: #3b82f6"/>
     <use xlink:href="#m8bae26359d" x="431.081828" y="241.52364" style="fill: #3b82f6; stroke: #3b82f6"/>
     <use xlink:href="#m8bae26359d" x="444.423757" y="231.260987" style="fill: #3b82f6; stroke: #3b82f6"/>
     <use xlink:href="#m8bae26359d" x="457.765693" y="244.432754" style="fill: #3b82f6; stroke: #3b82f6"/>
     <use xlink:href="#m8bae26359d" x="471.107623" y="229.351143" style="fill: #3b82f6; stroke: #3b82f6"/>
     <use xlink:href="#m8bae26359d" x="484.449556" y="245.518616" style="fill: #3b82f6; stroke: #3b82f6"/>
     <use xlink:href="#m8bae26359d" x="497.791489" y="244.974906" style="fill: #3b82f6; stroke: #3b82f6"/>
     <use xlink:href="#m8bae26359d" x="511.133422" y="249.597151" style="fill: #3b82f6; stroke: #3b82f6"/>
     <use xlink:href="#m8bae26359d" x="524.475354" y="249.647192" style="fill: #3b82f6; stroke: #3b82f6"/>
     <use xlink:href="#m8bae26359d" x="537.817286" y="204.703633" style="fill: #3b82f6; stroke: #3b82f6"/>
    </g>
   </g>
   <g id="line2d_130">
    <path d="M 84.191597 71.864296 
L 97.533529 72.326736 
L 110.875461 72.635881 
L 124.168608 72.841745 
L 137.543072 72.980043 
L 150.885004 73.072044 
L 164.241384 73.133466 
L 177.573684 73.174351 
L 190.915616 73.201638 
L 204.26611 73.219842 
L 217.608042 73.23197 
L 230.949974 73.240055 
L 244.293174 73.245447 
L 257.635106 73.249041 
L 270.977602 73.251437 
L 284.320285 73.253034 
L 297.662468 73.254099 
L 311.0044 73.254809 
L 324.346332 73.255282 
L 337.688189 73.255597 
" clip-path="url(#peb544bfe1c)" style="fill: none; stroke: #ef4444; stroke-width: 2; stroke-linecap: square"/>
    <defs>
     <path id="m590240733a" d="M 0 0.75 
C 0.198902 0.75 0.389685 0.670975 0.53033 0.53033 
C 0.670975 0.389685 0.75 0.198902 0.75 0 
C 0.75 -0.198902 0.670975 -0.389685 0.53033 -0.53033 
C 0.389685 -0.670975 0.198902 -0.75 0 -0.75 
C -0.198902 -0.75 -0.389685 -0.670975 -0.53033 -0.53033 
C -0.670975 -0.389685 -0.75 -0.198902 -0.75 0 
C -0.75 0.198902 -0.670975 0.389685 -0.53033 0.53033 
C -0.389685 0.670975 -0.198902 0.75 0 0.75 
z
" style="stroke: #ef4444"/>
    </defs>
    <g clip-path="url(#peb544bfe1c)">
     <use xlink:href="#m590240733a" x="84.191597" y="71.864296" style="fill: #ef4444; stroke: #ef4444"/>
     <use xlink:href="#m590240733a" x="97.533529" y="72.326736" style="fill: #ef4444; stroke: #ef4444"/>
     <use xlink:href="#m590240733a" x="110.875461" y="72.635881" style="fill: #ef4444; stroke: #ef4444"/>
     <use xlink:href="#m590240733a" x="124.168608" y="72.841745" style="fill: #ef4444; stroke: #ef4444"/>
     <use xlink:href="#m590240733a" x="137.543072" y="72.980043" style="fill: #ef4444; stroke: #ef4444"/>
     <use xlink:href="#m590240733a" x="150.885004" y="73.072044" style="fill: #ef4444; stroke: #ef4444"/>
     <use xlink:href="#m590240733a" x="164.241384" y="73.133466" style="fill: #ef4444; stroke: #ef4444"/>
     <use xlink:href="#m590240733a" x="177.573684" y="73.174351" style="fill: #ef4444; stroke: #ef4444"/>
     <use xlink:href="#m590240733a" x="190.915616" y="73.201638" style="fill: #ef4444; stroke: #ef4444"/>
     <use xlink:href="#m590240733a" x="204.26611" y="73.219842" style="fill: #ef4444; stroke: #ef4444"/>
     <use xlink:href="#m590240733a" x="217.608042" y="73.23197" style="fill: #ef4444; stroke: #ef4444"/>
     <use xlink:href="#m590240733a" x="230.949974" y="73.240055" style="fill: #ef4444; stroke: #ef4444"/>
     <use xlink:href="#m590240733a" x="244.293174" y="73.245447" style="fill: #ef4444; stroke: #ef4444"/>
     <use xlink:href="#m590240733a" x="257.635106" y="73.249041" style="fill: #ef4444; stroke: #ef4444"/>
     <use xlink:href="#m590240733a" x="270.977602" y="73.251437" style="fill: #ef4444; stroke: #ef4444"/>
     <use xlink:href="#m590240733a" x="284.320285" y="73.253034" style="fill: #ef4444; stroke: #ef4444"/>
     <use xlink:href="#m590240733a" x="297.662468" y="73.254099" style="fill: #ef4444; stroke: #ef4444"/>
     <use xlink:href="#m590240733a" x="311.0044" y="73.254809" style="fill: #ef4444; stroke: #ef4444"/>
     <use xlink:href="#m590240733a" x="324.346332" y="73.255282" style="fill: #ef4444; stroke: #ef4444"/>
     <use xlink:href="#m590240733a" x="337.688189" y="73.255597" style="fill: #ef4444; stroke: #ef4444"/>
    </g>
   </g>
   <g id="line2d_131">
    <path d="M 84.191597 59.923469 
L 97.533529 43.164708 
L 110.875461 66.579174 
L 124.168608 50.687903 
L 137.543072 72.520941 
L 150.885004 57.745597 
L 164.241384 40.194718 
L 177.573684 64.217821 
L 190.915616 47.769815 
L 204.26611 70.208542 
L 217.608042 54.882393 
L 230.949974 36.75006 
L 244.293174 61.501306 
L 257.635106 44.529591 
L 270.977602 67.654634 
L 284.320285 51.825251 
L 297.662468 33.169554 
L 311.0044 58.64283 
L 324.346332 41.156619 
L 337.688189 64.99401 
L 351.030171 48.660198 
L 364.372136 70.892253 
L 377.714068 55.685643 
L 391.056029 37.683083 
L 404.397961 62.241112 
L 417.739887 45.399809 
L 431.081828 68.337759 
L 444.423757 52.635809 
L 457.765693 34.114232 
L 471.107623 59.39789 
L 484.449556 42.044993 
L 497.791489 65.69594 
L 511.133422 49.493028 
L 524.475354 71.542639 
L 537.817286 56.463745 
" clip-path="url(#peb544bfe1c)" style="fill: none; stroke: #22c55e; stroke-width: 2; stroke-linecap: square"/>
    <defs>
     <path id="m240cfe78c8" d="M 0 0.75 
C 0.198902 0.75 0.389685 0.670975 0.53033 0.53033 
C 0.670975 0.389685 0.75 0.198902 0.75 0 
C 0.75 -0.198902 0.670975 -0.389685 0.53033 -0.53033 
C 0.389685 -0.670975 0.198902 -0.75 0 -0.75 
C -0.198902 -0.75 -0.389685 -0.670975 -0.53033 -0.53033 
C -0.670975 -0.389685 -0.75 -0.198902 -0.75 0 
C -0.75 0.198902 -0.670975 0.389685 -0.53033 0.53033 
C -0.389685 0.670975 -0.198902 0.75 0 0.75 
z
" style="stroke: #22c55e"/>
    </defs>
    <g clip-path="url(#peb544bfe1c)">
     <use xlink:href="#m240cfe78c8" x="84.191597" y="59.923469" style="fill: #22c55e; stroke: #22c55e"/>
     <use xlink:href="#m240cfe78c8" x="97.533529" y="43.164708" style="fill: #22c55e; stroke: #22c55e"/>
     <use xlink:href="#m240cfe78c8" x="110.875461" y="66.579174" style="fill: #22c55e; stroke: #22c55e"/>
     <use xlink:href="#m240cfe78c8" x="124.168608" y="50.687903" style="fill: #22c55e; stroke: #22c55e"/>
     <use xlink:href="#m240cfe78c8" x="137.543072" y="72.520941" style="fill: #22c55e; stroke: #22c55e"/>
     <use xlink:href="#m240cfe78c8" x="150.885004" y="57.745597" style="fill: #22c55e; stroke: #22c55e"/>
     <use xlink:href="#m240cfe78c8" x="164.241384" y="40.194718" style="fill: #22c55e; stroke: #22c55e"/>
     <use xlink:href="#m240cfe78c8" x="177.573684" y="64.217821" style="fill: #22c55e; stroke: #22c55e"/>
     <use xlink:href="#m240cfe78c8" x="190.915616" y="47.769815" style="fill: #22c55e; stroke: #22c55e"/>
     <use xlink:href="#m240cfe78c8" x="204.26611" y="70.208542" style="fill: #22c55e; stroke: #22c55e"/>
     <use xlink:href="#m240cfe78c8" x="217.608042" y="54.882393" style="fill: #22c55e; stroke: #22c55e"/>
     <use xlink:href="#m240cfe78c8" x="230.949974" y="36.75006" style="fill: #22c55e; stroke: #22c55e"/>
     <use xlink:href="#m240cfe78c8" x="244.293174" y="61.501306" style="fill: #22c55e; stroke: #22c55e"/>
     <use xlink:href="#m240cfe78c8" x="257.635106" y="44.529591" style="fill: #22c55e; stroke: #22c55e"/>
     <use xlink:href="#m240cfe78c8" x="270.977602" y="67.654634" style="fill: #22c55e; stroke: #22c55e"/>
     <use xlink:href="#m240cfe78c8" x="284.320285" y="51.825251" style="fill: #22c55e; stroke: #22c55e"/>
     <use xlink:href="#m240cfe78c8" x="297.662468" y="33.169554" style="fill: #22c55e; stroke: #22c55e"/>
     <use xlink:href="#m240cfe78c8" x="311.0044" y="58.64283" style="fill: #22c55e; stroke: #22c55e"/>
     <use xlink:href="#m240cfe78c8" x="324.346332" y="41.156619" style="fill: #22c55e; stroke: #22c55e"/>
     <use xlink:href="#m240cfe78c8" x="337.688189" y="64.99401" style="fill: #22c55e; stroke: #22c55e"/>
     <use xlink:href="#m240cfe78c8" x="351.030171" y="48.660198" style="fill: #22c55e; stroke: #22c55e"/>
     <use xlink:href="#m240cfe78c8" x="364.372136" y="70.892253" style="fill: #22c55e; stroke: #22c55e"/>
     <use xlink:href="#m240cfe78c8" x="377.714068" y="55.685643" style="fill: #22c55e; stroke: #22c55e"/>
     <use xlink:href="#m240cfe78c8" x="391.056029" y="37.683083" style="fill: #22c55e; stroke: #22c55e"/>
     <use xlink:href="#m240cfe78c8" x="404.397961" y="62.241112" style="fill: #22c55e; stroke: #22c55e"/>
     <use xlink:href="#m240cfe78c8" x="417.739887" y="45.399809" style="fill: #22c55e; stroke: #22c55e"/>
     <use xlink:href="#m240cfe78c8" x="431.081828" y="68.337759" style="fill: #22c55e; stroke: #22c55e"/>
     <use xlink:href="#m240cfe78c8" x="444.423757" y="52.635809" style="fill: #22c55e; stroke: #22c55e"/>
     <use xlink:href="#m240cfe78c8" x="457.765693" y="34.114232" style="fill: #22c55e; stroke: #22c55e"/>
     <use xlink:href="#m240cfe78c8" x="471.107623" y="59.39789" style="fill: #22c55e; stroke: #22c55e"/>
     <use xlink:href="#m240cfe78c8" x="484.449556" y="42.044993" style="fill: #22c55e; stroke: #22c55e"/>
     <use xlink:href="#m240cfe78c8" x="497.791489" y="65.69594" style="fill: #22c55e; stroke: #22c55e"/>
     <use xlink:href="#m240cfe78c8" x="511.133422" y="49.493028" style="fill: #22c55e; stroke: #22c55e"/>
     <use xlink:href="#m240cfe78c8" x="524.475354" y="71.542639" style="fill: #22c55e; stroke: #22c55e"/>
     <use xlink:href="#m240cfe78c8" x="537.817286" y="56.463745" style="fill: #22c55e; stroke: #22c55e"/>
    </g>
   </g>
   <g id="line2d_132">
    <path d="M 84.191597 226.939005 
L 97.533529 226.939005 
L 110.875461 226.939005 
L 124.168608 226.939005 
L 137.543072 226.939005 
L 150.885004 226.939005 
L 164.241384 226.939005 
L 177.573684 226.939005 
L 190.915616 226.939005 
L 204.26611 226.939005 
L 217.608042 226.939005 
L 230.949974 226.939005 
L 244.293174 226.939005 
L 257.635106 226.939005 
L 270.977602 226.939005 
L 284.320285 226.939005 
L 297.662468 226.939005 
L 311.0044 226.939005 
L 324.346332 226.939005 
L 337.688189 226.939005 
L 351.030171 226.939005 
L 364.372136 226.939005 
L 377.714068 226.939005 
L 391.056029 226.939005 
L 404.397961 226.939005 
L 417.739887 226.939005 
L 431.081828 226.939005 
L 444.423757 226.939005 
L 457.765693 226.939005 
L 471.107623 226.939005 
L 484.449556 226.939005 
L 497.791489 226.939005 
L 511.133422 226.939005 
L 524.475354 226.939005 
L 537.817286 226.939005 
" clip-path="url(#peb544bfe1c)" style="fill: none; stroke-dasharray: 3,3; stroke-dashoffset: 0; stroke: #888888"/>
    <defs>
     <path id="mb751d6114a" d="M 0 0.75 
C 0.198902 0.75 0.389685 0.670975 0.53033 0.53033 
C 0.670975 0.389685 0.75 0.198902 0.75 0 
C 0.75 -0.198902 0.670975 -0.389685 0.53033 -0.53033 
C 0.389685 -0.670975 0.198902 -0.75 0 -0.75 
C -0.198902 -0.75 -0.389685 -0.670975 -0.53033 -0.53033 
C -0.670975 -0.389685 -0.75 -0.198902 -0.75 0 
C -0.75 0.198902 -0.670975 0.389685 -0.53033 0.53033 
C -0.389685 0.670975 -0.198902 0.75 0 0.75 
z
" style="stroke: #888888"/>
    </defs>
    <g clip-path="url(#peb544bfe1c)">
     <use xlink:href="#mb751d6114a" x="84.191597" y="226.939005" style="fill: #888888; stroke: #888888"/>
     <use xlink:href="#mb751d6114a" x="97.533529" y="226.939005" style="fill: #888888; stroke: #888888"/>
     <use xlink:href="#mb751d6114a" x="110.875461" y="226.939005" style="fill: #888888; stroke: #888888"/>
     <use xlink:href="#mb751d6114a" x="124.168608" y="226.939005" style="fill: #888888; stroke: #888888"/>
     <use xlink:href="#mb751d6114a" x="137.543072" y="226.939005" style="fill: #888888; stroke: #888888"/>
     <use xlink:href="#mb751d6114a" x="150.885004" y="226.939005" style="fill: #888888; stroke: #888888"/>
     <use xlink:href="#mb751d6114a" x="164.241384" y="226.939005" style="fill: #888888; stroke: #888888"/>
     <use xlink:href="#mb751d6114a" x="177.573684" y="226.939005" style="fill: #888888; stroke: #888888"/>
     <use xlink:href="#mb751d6114a" x="190.915616" y="226.939005" style="fill: #888888; stroke: #888888"/>
     <use xlink:href="#mb751d6114a" x="204.26611" y="226.939005" style="fill: #888888; stroke: #888888"/>
     <use xlink:href="#mb751d6114a" x="217.608042" y="226.939005" style="fill: #888888; stroke: #888888"/>
     <use xlink:href="#mb751d6114a" x="230.949974" y="226.939005" style="fill: #888888; stroke: #888888"/>
     <use xlink:href="#mb751d6114a" x="244.293174" y="226.939005" style="fill: #888888; stroke: #888888"/>
     <use xlink:href="#mb751d6114a" x="257.635106" y="226.939005" style="fill: #888888; stroke: #888888"/>
     <use xlink:href="#mb751d6114a" x="270.977602" y="226.939005" style="fill: #888888; stroke: #888888"/>
     <use xlink:href="#mb751d6114a" x="284.320285" y="226.939005" style="fill: #888888; stroke: #888888"/>
     <use xlink:href="#mb751d6114a" x="297.662468" y="226.939005" style="fill: #888888; stroke: #888888"/>
     <use xlink:href="#mb751d6114a" x="311.0044" y="226.939005" style="fill: #888888; stroke: #888888"/>
     <use xlink:href="#mb751d6114a" x="324.346332" y="226.939005" style="fill: #888888; stroke: #888888"/>
     <use xlink:href="#mb751d6114a" x="337.688189" y="226.939005" style="fill: #888888; stroke: #888888"/>
     <use xlink:href="#mb751d6114a" x="351.030171" y="226.939005" style="fill: #888888; stroke: #888888"/>
     <use xlink:href="#mb751d6114a" x="364.372136" y="226.939005" style="fill: #888888; stroke: #888888"/>
     <use xlink:href="#mb751d6114a" x="377.714068" y="226.939005" style="fill: #888888; stroke: #888888"/>
     <use xlink:href="#mb751d6114a" x="391.056029" y="226.939005" style="fill: #888888; stroke: #888888"/>
     <use xlink:href="#mb751d6114a" x="404.397961" y="226.939005" style="fill: #888888; stroke: #888888"/>
     <use xlink:href="#mb751d6114a" x="417.739887" y="226.939005" style="fill: #888888; stroke: #888888"/>
     <use xlink:href="#mb751d6114a" x="431.081828" y="226.939005" style="fill: #888888; stroke: #888888"/>
     <use xlink:href="#mb751d6114a" x="444.423757" y="226.939005" style="fill: #888888; stroke: #888888"/>
     <use xlink:href="#mb751d6114a" x="457.765693" y="226.939005" style="fill: #888888; stroke: #888888"/>
     <use xlink:href="#mb751d6114a" x="471.107623" y="226.939005" style="fill: #888888; stroke: #888888"/>
     <use xlink:href="#mb751d6114a" x="484.449556" y="226.939005" style="fill: #888888; stroke: #888888"/>
     <use xlink:href="#mb751d6114a" x="497.791489" y="226.939005" style="fill: #888888; stroke: #888888"/>
     <use xlink:href="#mb751d6114a" x="511.133422" y="226.939005" style="fill: #888888; stroke: #888888"/>
     <use xlink:href="#mb751d6114a" x="524.475354" y="226.939005" style="fill: #888888; stroke: #888888"/>
     <use xlink:href="#mb751d6114a" x="537.817286" y="226.939005" style="fill: #888888; stroke: #888888"/>
    </g>
   </g>
   <g id="patch_3">
    <path d="M 61.510313 277.006281 
L 61.510313 21.558281 
" style="fill: none; stroke: #000000; stroke-width: 0.8; stroke-linejoin: miter; stroke-linecap: square"/>
   </g>
   <g id="patch_4">
    <path d="M 560.49857 277.006281 
L 560.49857 21.558281 
" style="fill: none; stroke: #000000; stroke-width: 0.8; stroke-linejoin: miter; stroke-linecap: square"/>
   </g>
   <g id="patch_5">
    <path d="M 61.510312 277.006281 
L 560.49857 277.006281 
" style="fill: none; stroke: #000000; stroke-width: 0.8; stroke-linejoin: miter; stroke-linecap: square"/>
   </g>
   <g id="patch_6">
    <path d="M 61.510312 21.558281 
L 560.49857 21.558281 
" style="fill: none; stroke: #000000; stroke-width: 0.8; stroke-linejoin: miter; stroke-linecap: square"/>
   </g>
   <g id="text_14">
    <!-- KNTRIE u64→i32 — Memory (random) -->
    <g transform="translate(195.649676 15.558281) scale(0.11 -0.11)">
     <defs>
      <path id="DejaVuSans-Bold-4b" d="M 588 4666 
L 1791 4666 
L 1791 2963 
L 3525 4666 
L 4922 4666 
L 2675 2456 
L 5153 0 
L 3647 0 
L 1791 1838 
L 1791 0 
L 588 0 
L 588 4666 
z
" transform="scale(0.015625)"/>
      <path id="DejaVuSans-Bold-4e" d="M 588 4666 
L 1931 4666 
L 3628 1466 
L 3628 4666 
L 4769 4666 
L 4769 0 
L 3425 0 
L 1728 3200 
L 1728 0 
L 588 0 
L 588 4666 
z
" transform="scale(0.015625)"/>
      <path id="DejaVuSans-Bold-54" d="M 31 4666 
L 4331 4666 
L 4331 3756 
L 2784 3756 
L 2784 0 
L 1581 0 
L 1581 3756 
L 31 3756 
L 31 4666 
z
" transform="scale(0.015625)"/>
      <path id="DejaVuSans-Bold-52" d="M 2297 2597 
Q 2675 2597 2839 2737 
Q 3003 2878 3003 3200 
Q 3003 3519 2839 3656 
Q 2675 3794 2297 3794 
L 1791 3794 
L 1791 2597 
L 2297 2597 
z
M 1791 1766 
L 1791 0 
L 588 0 
L 588 4666 
L 2425 4666 
Q 3347 4666 3776 4356 
Q 4206 4047 4206 3378 
Q 4206 2916 3982 2619 
Q 3759 2322 3309 2181 
Q 3556 2125 3751 1926 
Q 3947 1728 4147 1325 
L 4800 0 
L 3519 0 
L 2950 1159 
Q 2778 1509 2601 1637 
Q 2425 1766 2131 1766 
L 1791 1766 
z
" transform="scale(0.015625)"/>
      <path id="DejaVuSans-Bold-49" d="M 588 4666 
L 1791 4666 
L 1791 0 
L 588 0 
L 588 4666 
z
" transform="scale(0.015625)"/>
      <path id="DejaVuSans-Bold-45" d="M 588 4666 
L 3834 4666 
L 3834 3756 
L 1791 3756 
L 1791 2888 
L 3713 2888 
L 3713 1978 
L 1791 1978 
L 1791 909 
L 3903 909 
L 3903 0 
L 588 0 
L 588 4666 
z
" transform="scale(0.015625)"/>
      <path id="DejaVuSans-Bold-20" transform="scale(0.015625)"/>
      <path id="DejaVuSans-Bold-75" d="M 500 1363 
L 500 3500 
L 1625 3500 
L 1625 3150 
Q 1625 2866 1622 2436 
Q 1619 2006 1619 1863 
Q 1619 1441 1641 1255 
Q 1663 1069 1716 984 
Q 1784 875 1895 815 
Q 2006 756 2150 756 
Q 2500 756 2700 1025 
Q 2900 1294 2900 1772 
L 2900 3500 
L 4019 3500 
L 4019 0 
L 2900 0 
L 2900 506 
Q 2647 200 2364 54 
Q 2081 -91 1741 -91 
Q 1134 -91 817 281 
Q 500 653 500 1363 
z
" transform="scale(0.015625)"/>
      <path id="DejaVuSans-Bold-36" d="M 2316 2303 
Q 2000 2303 1842 2098 
Q 1684 1894 1684 1484 
Q 1684 1075 1842 870 
Q 2000 666 2316 666 
Q 2634 666 2792 870 
Q 2950 1075 2950 1484 
Q 2950 1894 2792 2098 
Q 2634 2303 2316 2303 
z
M 3803 4544 
L 3803 3681 
Q 3506 3822 3243 3889 
Q 2981 3956 2731 3956 
Q 2194 3956 1894 3657 
Q 1594 3359 1544 2772 
Q 1750 2925 1990 3001 
Q 2231 3078 2516 3078 
Q 3231 3078 3670 2659 
Q 4109 2241 4109 1563 
Q 4109 813 3618 361 
Q 3128 -91 2303 -91 
Q 1394 -91 895 523 
Q 397 1138 397 2266 
Q 397 3422 980 4083 
Q 1563 4744 2578 4744 
Q 2900 4744 3203 4694 
Q 3506 4644 3803 4544 
z
" transform="scale(0.015625)"/>
      <path id="DejaVuSans-Bold-34" d="M 2356 3675 
L 1038 1722 
L 2356 1722 
L 2356 3675 
z
M 2156 4666 
L 3494 4666 
L 3494 1722 
L 4159 1722 
L 4159 850 
L 3494 850 
L 3494 0 
L 2356 0 
L 2356 850 
L 288 850 
L 288 1881 
L 2156 4666 
z
" transform="scale(0.015625)"/>
      <path id="DejaVuSans-Bold-2192" d="M 5050 2225 
L 5050 1788 
L 3822 559 
L 3369 1013 
L 3988 1631 
L 366 1631 
L 366 2381 
L 3988 2381 
L 3369 3000 
L 3822 3453 
L 5050 2225 
z
" transform="scale(0.015625)"/>
      <path id="DejaVuSans-Bold-69" d="M 538 3500 
L 1656 3500 
L 1656 0 
L 538 0 
L 538 3500 
z
M 538 4863 
L 1656 4863 
L 1656 3950 
L 538 3950 
L 538 4863 
z
" transform="scale(0.015625)"/>
      <path id="DejaVuSans-Bold-33" d="M 2981 2516 
Q 3453 2394 3698 2092 
Q 3944 1791 3944 1325 
Q 3944 631 3412 270 
Q 2881 -91 1863 -91 
Q 1503 -91 1142 -33 
Q 781 25 428 141 
L 428 1069 
Q 766 900 1098 814 
Q 1431 728 1753 728 
Q 2231 728 2486 893 
Q 2741 1059 2741 1369 
Q 2741 1688 2480 1852 
Q 2219 2016 1709 2016 
L 1228 2016 
L 1228 2791 
L 1734 2791 
Q 2188 2791 2409 2933 
Q 2631 3075 2631 3366 
Q 2631 3634 2415 3781 
Q 2200 3928 1806 3928 
Q 1516 3928 1219 3862 
Q 922 3797 628 3669 
L 628 4550 
Q 984 4650 1334 4700 
Q 1684 4750 2022 4750 
Q 2931 4750 3382 4451 
Q 3834 4153 3834 3553 
Q 3834 3144 3618 2883 
Q 3403 2622 2981 2516 
z
" transform="scale(0.015625)"/>
      <path id="DejaVuSans-Bold-32" d="M 1844 884 
L 3897 884 
L 3897 0 
L 506 0 
L 506 884 
L 2209 2388 
Q 2438 2594 2547 2791 
Q 2656 2988 2656 3200 
Q 2656 3528 2436 3728 
Q 2216 3928 1850 3928 
Q 1569 3928 1234 3808 
Q 900 3688 519 3450 
L 519 4475 
Q 925 4609 1322 4679 
Q 1719 4750 2100 4750 
Q 2938 4750 3402 4381 
Q 3866 4013 3866 3353 
Q 3866 2972 3669 2642 
Q 3472 2313 2841 1759 
L 1844 884 
z
" transform="scale(0.015625)"/>
      <path id="DejaVuSans-Bold-2014" d="M 344 2156 
L 6056 2156 
L 6056 1350 
L 344 1350 
L 344 2156 
z
" transform="scale(0.015625)"/>
      <path id="DejaVuSans-Bold-4d" d="M 588 4666 
L 2119 4666 
L 3181 2169 
L 4250 4666 
L 5778 4666 
L 5778 0 
L 4641 0 
L 4641 3413 
L 3566 897 
L 2803 897 
L 1728 3413 
L 1728 0 
L 588 0 
L 588 4666 
z
" transform="scale(0.015625)"/>
      <path id="DejaVuSans-Bold-65" d="M 4031 1759 
L 4031 1441 
L 1416 1441 
Q 1456 1047 1700 850 
Q 1944 653 2381 653 
Q 2734 653 3104 758 
Q 3475 863 3866 1075 
L 3866 213 
Q 3469 63 3072 -14 
Q 2675 -91 2278 -91 
Q 1328 -91 801 392 
Q 275 875 275 1747 
Q 275 2603 792 3093 
Q 1309 3584 2216 3584 
Q 3041 3584 3536 3087 
Q 4031 2591 4031 1759 
z
M 2881 2131 
Q 2881 2450 2695 2645 
Q 2509 2841 2209 2841 
Q 1884 2841 1681 2658 
Q 1478 2475 1428 2131 
L 2881 2131 
z
" transform="scale(0.015625)"/>
      <path id="DejaVuSans-Bold-6d" d="M 3781 2919 
Q 3994 3244 4286 3414 
Q 4578 3584 4928 3584 
Q 5531 3584 5847 3212 
Q 6163 2841 6163 2131 
L 6163 0 
L 5038 0 
L 5038 1825 
Q 5041 1866 5042 1909 
Q 5044 1953 5044 2034 
Q 5044 2406 4934 2573 
Q 4825 2741 4581 2741 
Q 4263 2741 4089 2478 
Q 3916 2216 3909 1719 
L 3909 0 
L 2784 0 
L 2784 1825 
Q 2784 2406 2684 2573 
Q 2584 2741 2328 2741 
Q 2006 2741 1831 2477 
Q 1656 2213 1656 1722 
L 1656 0 
L 531 0 
L 531 3500 
L 1656 3500 
L 1656 2988 
Q 1863 3284 2130 3434 
Q 2397 3584 2719 3584 
Q 3081 3584 3359 3409 
Q 3638 3234 3781 2919 
z
" transform="scale(0.015625)"/>
      <path id="DejaVuSans-Bold-6f" d="M 2203 2784 
Q 1831 2784 1636 2517 
Q 1441 2250 1441 1747 
Q 1441 1244 1636 976 
Q 1831 709 2203 709 
Q 2569 709 2762 976 
Q 2956 1244 2956 1747 
Q 2956 2250 2762 2517 
Q 2569 2784 2203 2784 
z
M 2203 3584 
Q 3106 3584 3614 3096 
Q 4122 2609 4122 1747 
Q 4122 884 3614 396 
Q 3106 -91 2203 -91 
Q 1297 -91 786 396 
Q 275 884 275 1747 
Q 275 2609 786 3096 
Q 1297 3584 2203 3584 
z
" transform="scale(0.015625)"/>
      <path id="DejaVuSans-Bold-72" d="M 3138 2547 
Q 2991 2616 2845 2648 
Q 2700 2681 2553 2681 
Q 2122 2681 1889 2404 
Q 1656 2128 1656 1613 
L 1656 0 
L 538 0 
L 538 3500 
L 1656 3500 
L 1656 2925 
Q 1872 3269 2151 3426 
Q 2431 3584 2822 3584 
Q 2878 3584 2943 3579 
Q 3009 3575 3134 3559 
L 3138 2547 
z
" transform="scale(0.015625)"/>
      <path id="DejaVuSans-Bold-79" d="M 78 3500 
L 1197 3500 
L 2138 1125 
L 2938 3500 
L 4056 3500 
L 2584 -331 
Q 2363 -916 2067 -1148 
Q 1772 -1381 1288 -1381 
L 641 -1381 
L 641 -647 
L 991 -647 
Q 1275 -647 1404 -556 
Q 1534 -466 1606 -231 
L 1638 -134 
L 78 3500 
z
" transform="scale(0.015625)"/>
      <path id="DejaVuSans-Bold-28" d="M 2413 -844 
L 1484 -844 
Q 1006 -72 778 623 
Q 550 1319 550 2003 
Q 550 2688 779 3389 
Q 1009 4091 1484 4856 
L 2413 4856 
Q 2013 4116 1813 3408 
Q 1613 2700 1613 2009 
Q 1613 1319 1811 609 
Q 2009 -100 2413 -844 
z
" transform="scale(0.015625)"/>
      <path id="DejaVuSans-Bold-61" d="M 2106 1575 
Q 1756 1575 1579 1456 
Q 1403 1338 1403 1106 
Q 1403 894 1545 773 
Q 1688 653 1941 653 
Q 2256 653 2472 879 
Q 2688 1106 2688 1447 
L 2688 1575 
L 2106 1575 
z
M 3816 1997 
L 3816 0 
L 2688 0 
L 2688 519 
Q 2463 200 2181 54 
Q 1900 -91 1497 -91 
Q 953 -91 614 226 
Q 275 544 275 1050 
Q 275 1666 698 1953 
Q 1122 2241 2028 2241 
L 2688 2241 
L 2688 2328 
Q 2688 2594 2478 2717 
Q 2269 2841 1825 2841 
Q 1466 2841 1156 2769 
Q 847 2697 581 2553 
L 581 3406 
Q 941 3494 1303 3539 
Q 1666 3584 2028 3584 
Q 2975 3584 3395 3211 
Q 3816 2838 3816 1997 
z
" transform="scale(0.015625)"/>
      <path id="DejaVuSans-Bold-6e" d="M 4056 2131 
L 4056 0 
L 2931 0 
L 2931 347 
L 2931 1631 
Q 2931 2084 2911 2256 
Q 2891 2428 2841 2509 
Q 2775 2619 2662 2680 
Q 2550 2741 2406 2741 
Q 2056 2741 1856 2470 
Q 1656 2200 1656 1722 
L 1656 0 
L 538 0 
L 538 3500 
L 1656 3500 
L 1656 2988 
Q 1909 3294 2193 3439 
Q 2478 3584 2822 3584 
Q 3428 3584 3742 3212 
Q 4056 2841 4056 2131 
z
" transform="scale(0.015625)"/>
      <path id="DejaVuSans-Bold-64" d="M 2919 2988 
L 2919 4863 
L 4044 4863 
L 4044 0 
L 2919 0 
L 2919 506 
Q 2688 197 2409 53 
Q 2131 -91 1766 -91 
Q 1119 -91 703 423 
Q 288 938 288 1747 
Q 288 2556 703 3070 
Q 1119 3584 1766 3584 
Q 2128 3584 2408 3439 
Q 2688 3294 2919 2988 
z
M 2181 722 
Q 2541 722 2730 984 
Q 2919 1247 2919 1747 
Q 2919 2247 2730 2509 
Q 2541 2772 2181 2772 
Q 1825 2772 1636 2509 
Q 1447 2247 1447 1747 
Q 1447 1247 1636 984 
Q 1825 722 2181 722 
z
" transform="scale(0.015625)"/>
      <path id="DejaVuSans-Bold-29" d="M 513 -844 
Q 913 -100 1113 609 
Q 1313 1319 1313 2009 
Q 1313 2700 1113 3408 
Q 913 4116 513 4856 
L 1441 4856 
Q 1916 4091 2145 3389 
Q 2375 2688 2375 2003 
Q 2375 1319 2147 623 
Q 1919 -72 1441 -844 
L 513 -844 
z
" transform="scale(0.015625)"/>
     </defs>
     <use xlink:href="#DejaVuSans-Bold-4b"/>
     <use xlink:href="#DejaVuSans-Bold-4e" transform="translate(77.490234 0)"/>
     <use xlink:href="#DejaVuSans-Bold-54" transform="translate(161.181641 0)"/>
     <use xlink:href="#DejaVuSans-Bold-52" transform="translate(229.394531 0)"/>
     <use xlink:href="#DejaVuSans-Bold-49" transform="translate(306.396484 0)"/>
     <use xlink:href="#DejaVuSans-Bold-45" transform="translate(343.603516 0)"/>
     <use xlink:href="#DejaVuSans-Bold-20" transform="translate(411.914062 0)"/>
     <use xlink:href="#DejaVuSans-Bold-75" transform="translate(446.728516 0)"/>
     <use xlink:href="#DejaVuSans-Bold-36" transform="translate(517.919922 0)"/>
     <use xlink:href="#DejaVuSans-Bold-34" transform="translate(587.5 0)"/>
     <use xlink:href="#DejaVuSans-Bold-2192" transform="translate(657.080078 0)"/>
     <use xlink:href="#DejaVuSans-Bold-69" transform="translate(740.869141 0)"/>
     <use xlink:href="#DejaVuSans-Bold-33" transform="translate(775.146484 0)"/>
     <use xlink:href="#DejaVuSans-Bold-32" transform="translate(844.726562 0)"/>
     <use xlink:href="#DejaVuSans-Bold-20" transform="translate(914.306641 0)"/>
     <use xlink:href="#DejaVuSans-Bold-2014" transform="translate(949.121094 0)"/>
     <use xlink:href="#DejaVuSans-Bold-20" transform="translate(1049.121094 0)"/>
     <use xlink:href="#DejaVuSans-Bold-4d" transform="translate(1083.935547 0)"/>
     <use xlink:href="#DejaVuSans-Bold-65" transform="translate(1183.447266 0)"/>
     <use xlink:href="#DejaVuSans-Bold-6d" transform="translate(1251.269531 0)"/>
     <use xlink:href="#DejaVuSans-Bold-6f" transform="translate(1355.46875 0)"/>
     <use xlink:href="#DejaVuSans-Bold-72" transform="translate(1424.169922 0)"/>
     <use xlink:href="#DejaVuSans-Bold-79" transform="translate(1473.486328 0)"/>
     <use xlink:href="#DejaVuSans-Bold-20" transform="translate(1538.671875 0)"/>
     <use xlink:href="#DejaVuSans-Bold-28" transform="translate(1573.486328 0)"/>
     <use xlink:href="#DejaVuSans-Bold-72" transform="translate(1619.189453 0)"/>
     <use xlink:href="#DejaVuSans-Bold-61" transform="translate(1668.505859 0)"/>
     <use xlink:href="#DejaVuSans-Bold-6e" transform="translate(1735.986328 0)"/>
     <use xlink:href="#DejaVuSans-Bold-64" transform="translate(1807.177734 0)"/>
     <use xlink:href="#DejaVuSans-Bold-6f" transform="translate(1878.759766 0)"/>
     <use xlink:href="#DejaVuSans-Bold-6d" transform="translate(1947.460938 0)"/>
     <use xlink:href="#DejaVuSans-Bold-29" transform="translate(2051.660156 0)"/>
    </g>
   </g>
   <g id="legend_1">
    <g id="patch_7">
     <path d="M 66.760312 71.592656 
L 127.498594 71.592656 
Q 128.998594 71.592656 128.998594 70.092656 
L 128.998594 26.808281 
Q 128.998594 25.308281 127.498594 25.308281 
L 66.760312 25.308281 
Q 65.260312 25.308281 65.260312 26.808281 
L 65.260312 70.092656 
Q 65.260312 71.592656 66.760312 71.592656 
z
" style="fill: #ffffff; opacity: 0.8; stroke: #cccccc; stroke-linejoin: miter"/>
    </g>
    <g id="line2d_133">
     <path d="M 68.260312 31.382109 
L 75.760312 31.382109 
L 83.260312 31.382109 
" style="fill: none; stroke: #3b82f6; stroke-width: 2; stroke-linecap: square"/>
     <g>
      <use xlink:href="#m8bae26359d" x="75.760312" y="31.382109" style="fill: #3b82f6; stroke: #3b82f6"/>
     </g>
    </g>
    <g id="text_15">
     <!-- kntrie -->
     <g transform="translate(89.260312 34.007109) scale(0.075 -0.075)">
      <defs>
       <path id="DejaVuSans-6b" d="M 581 4863 
L 1159 4863 
L 1159 1991 
L 2875 3500 
L 3609 3500 
L 1753 1863 
L 3688 0 
L 2938 0 
L 1159 1709 
L 1159 0 
L 581 0 
L 581 4863 
z
" transform="scale(0.015625)"/>
      </defs>
      <use xlink:href="#DejaVuSans-6b"/>
      <use xlink:href="#DejaVuSans-6e" transform="translate(57.910156 0)"/>
      <use xlink:href="#DejaVuSans-74" transform="translate(121.289062 0)"/>
      <use xlink:href="#DejaVuSans-72" transform="translate(160.498047 0)"/>
      <use xlink:href="#DejaVuSans-69" transform="translate(201.611328 0)"/>
      <use xlink:href="#DejaVuSans-65" transform="translate(229.394531 0)"/>
     </g>
    </g>
    <g id="line2d_134">
     <path d="M 68.260312 42.390703 
L 75.760312 42.390703 
L 83.260312 42.390703 
" style="fill: none; stroke: #ef4444; stroke-width: 2; stroke-linecap: square"/>
     <g>
      <use xlink:href="#m590240733a" x="75.760312" y="42.390703" style="fill: #ef4444; stroke: #ef4444"/>
     </g>
    </g>
    <g id="text_16">
     <!-- map -->
     <g transform="translate(89.260312 45.015703) scale(0.075 -0.075)">
      <defs>
       <path id="DejaVuSans-6d" d="M 3328 2828 
Q 3544 3216 3844 3400 
Q 4144 3584 4550 3584 
Q 5097 3584 5394 3201 
Q 5691 2819 5691 2113 
L 5691 0 
L 5113 0 
L 5113 2094 
Q 5113 2597 4934 2840 
Q 4756 3084 4391 3084 
Q 3944 3084 3684 2787 
Q 3425 2491 3425 1978 
L 3425 0 
L 2847 0 
L 2847 2094 
Q 2847 2600 2669 2842 
Q 2491 3084 2119 3084 
Q 1678 3084 1418 2786 
Q 1159 2488 1159 1978 
L 1159 0 
L 581 0 
L 581 3500 
L 1159 3500 
L 1159 2956 
Q 1356 3278 1631 3431 
Q 1906 3584 2284 3584 
Q 2666 3584 2933 3390 
Q 3200 3197 3328 2828 
z
" transform="scale(0.015625)"/>
       <path id="DejaVuSans-61" d="M 2194 1759 
Q 1497 1759 1228 1600 
Q 959 1441 959 1056 
Q 959 750 1161 570 
Q 1363 391 1709 391 
Q 2188 391 2477 730 
Q 2766 1069 2766 1631 
L 2766 1759 
L 2194 1759 
z
M 3341 1997 
L 3341 0 
L 2766 0 
L 2766 531 
Q 2569 213 2275 61 
Q 1981 -91 1556 -91 
Q 1019 -91 701 211 
Q 384 513 384 1019 
Q 384 1609 779 1909 
Q 1175 2209 1959 2209 
L 2766 2209 
L 2766 2266 
Q 2766 2663 2505 2880 
Q 2244 3097 1772 3097 
Q 1472 3097 1187 3025 
Q 903 2953 641 2809 
L 641 3341 
Q 956 3463 1253 3523 
Q 1550 3584 1831 3584 
Q 2591 3584 2966 3190 
Q 3341 2797 3341 1997 
z
" transform="scale(0.015625)"/>
       <path id="DejaVuSans-70" d="M 1159 525 
L 1159 -1331 
L 581 -1331 
L 581 3500 
L 1159 3500 
L 1159 2969 
Q 1341 3281 1617 3432 
Q 1894 3584 2278 3584 
Q 2916 3584 3314 3078 
Q 3713 2572 3713 1747 
Q 3713 922 3314 415 
Q 2916 -91 2278 -91 
Q 1894 -91 1617 61 
Q 1341 213 1159 525 
z
M 3116 1747 
Q 3116 2381 2855 2742 
Q 2594 3103 2138 3103 
Q 1681 3103 1420 2742 
Q 1159 2381 1159 1747 
Q 1159 1113 1420 752 
Q 1681 391 2138 391 
Q 2594 391 2855 752 
Q 3116 1113 3116 1747 
z
" transform="scale(0.015625)"/>
      </defs>
      <use xlink:href="#DejaVuSans-6d"/>
      <use xlink:href="#DejaVuSans-61" transform="translate(97.412109 0)"/>
      <use xlink:href="#DejaVuSans-70" transform="translate(158.691406 0)"/>
     </g>
    </g>
    <g id="line2d_135">
     <path d="M 68.260312 53.399297 
L 75.760312 53.399297 
L 83.260312 53.399297 
" style="fill: none; stroke: #22c55e; stroke-width: 2; stroke-linecap: square"/>
     <g>
      <use xlink:href="#m240cfe78c8" x="75.760312" y="53.399297" style="fill: #22c55e; stroke: #22c55e"/>
     </g>
    </g>
    <g id="text_17">
     <!-- umap -->
     <g transform="translate(89.260312 56.024297) scale(0.075 -0.075)">
      <defs>
       <path id="DejaVuSans-75" d="M 544 1381 
L 544 3500 
L 1119 3500 
L 1119 1403 
Q 1119 906 1312 657 
Q 1506 409 1894 409 
Q 2359 409 2629 706 
Q 2900 1003 2900 1516 
L 2900 3500 
L 3475 3500 
L 3475 0 
L 2900 0 
L 2900 538 
Q 2691 219 2414 64 
Q 2138 -91 1772 -91 
Q 1169 -91 856 284 
Q 544 659 544 1381 
z
M 1991 3584 
L 1991 3584 
z
" transform="scale(0.015625)"/>
      </defs>
      <use xlink:href="#DejaVuSans-75"/>
      <use xlink:href="#DejaVuSans-6d" transform="translate(63.378906 0)"/>
      <use xlink:href="#DejaVuSans-61" transform="translate(160.791016 0)"/>
      <use xlink:href="#DejaVuSans-70" transform="translate(222.070312 0)"/>
     </g>
    </g>
    <g id="line2d_136">
     <path d="M 68.260312 64.407891 
L 75.760312 64.407891 
L 83.260312 64.407891 
" style="fill: none; stroke-dasharray: 3,3; stroke-dashoffset: 0; stroke: #888888"/>
     <g>
      <use xlink:href="#mb751d6114a" x="75.760312" y="64.407891" style="fill: #888888; stroke: #888888"/>
     </g>
    </g>
    <g id="text_18">
     <!-- raw (16B) -->
     <g transform="translate(89.260312 67.032891) scale(0.075 -0.075)">
      <defs>
       <path id="DejaVuSans-77" d="M 269 3500 
L 844 3500 
L 1563 769 
L 2278 3500 
L 2956 3500 
L 3675 769 
L 4391 3500 
L 4966 3500 
L 4050 0 
L 3372 0 
L 2619 2869 
L 1863 0 
L 1184 0 
L 269 3500 
z
" transform="scale(0.015625)"/>
       <path id="DejaVuSans-42" d="M 1259 2228 
L 1259 519 
L 2272 519 
Q 2781 519 3026 730 
Q 3272 941 3272 1375 
Q 3272 1813 3026 2020 
Q 2781 2228 2272 2228 
L 1259 2228 
z
M 1259 4147 
L 1259 2741 
L 2194 2741 
Q 2656 2741 2882 2914 
Q 3109 3088 3109 3444 
Q 3109 3797 2882 3972 
Q 2656 4147 2194 4147 
L 1259 4147 
z
M 628 4666 
L 2241 4666 
Q 2963 4666 3353 4366 
Q 3744 4066 3744 3513 
Q 3744 3084 3544 2831 
Q 3344 2578 2956 2516 
Q 3422 2416 3680 2098 
Q 3938 1781 3938 1306 
Q 3938 681 3513 340 
Q 3088 0 2303 0 
L 628 0 
L 628 4666 
z
" transform="scale(0.015625)"/>
      </defs>
      <use xlink:href="#DejaVuSans-72"/>
      <use xlink:href="#DejaVuSans-61" transform="translate(41.113281 0)"/>
      <use xlink:href="#DejaVuSans-77" transform="translate(102.392578 0)"/>
      <use xlink:href="#DejaVuSans-20" transform="translate(184.179688 0)"/>
      <use xlink:href="#DejaVuSans-28" transform="translate(215.966797 0)"/>
      <use xlink:href="#DejaVuSans-31" transform="translate(254.980469 0)"/>
      <use xlink:href="#DejaVuSans-36" transform="translate(318.603516 0)"/>
      <use xlink:href="#DejaVuSans-42" transform="translate(382.226562 0)"/>
      <use xlink:href="#DejaVuSans-29" transform="translate(450.830078 0)"/>
     </g>
    </g>
   </g>
  </g>
 </g>
 <defs>
  <clipPath id="peb544bfe1c">
   <rect x="61.510313" y="21.558281" width="498.988258" height="255.448"/>
  </clipPath>
 </defs>
</svg>
